<svg xmlns="http://www.w3.org/2000/svg" xmlns:xlink="http://www.w3.org/1999/xlink" width="551" zoomAndPan="magnify" viewBox="0 0 413.25 296.999993" height="396" preserveAspectRatio="xMidYMid meet" version="1.0"><defs><filter x="0%" y="0%" width="100%" height="100%" id="09be75a5e4"><feColorMatrix values="0 0 0 0 1 0 0 0 0 1 0 0 0 0 1 0 0 0 1 0" color-interpolation-filters="sRGB"/></filter><g/><clipPath id="dad338bcad"><path d="M 54 0.269531 L 351 0.269531 L 351 296.730469 L 54 296.730469 Z M 54 0.269531 " clip-rule="nonzero"/></clipPath><mask id="bede099755"><g filter="url(#09be75a5e4)"><rect x="-41.325" width="495.9" fill="#000000" y="-29.699999" height="356.399992" fill-opacity="0.3"/></g></mask><clipPath id="7295fa3e31"><path d="M 0.644531 145 L 4 145 L 4 149 L 0.644531 149 Z M 0.644531 145 " clip-rule="nonzero"/></clipPath><clipPath id="7c746d0691"><path d="M 292 158 L 296.488281 158 L 296.488281 162 L 292 162 Z M 292 158 " clip-rule="nonzero"/></clipPath><clipPath id="4a8e7c4b8d"><path d="M 292 138 L 296.488281 138 L 296.488281 142 L 292 142 Z M 292 138 " clip-rule="nonzero"/></clipPath><clipPath id="c42fbabb54"><path d="M 152 0.710938 L 157 0.710938 L 157 5 L 152 5 Z M 152 0.710938 " clip-rule="nonzero"/></clipPath><clipPath id="139ef421ce"><path d="M 293 148 L 296.488281 148 L 296.488281 152 L 293 152 Z M 293 148 " clip-rule="nonzero"/></clipPath><clipPath id="22a71f7ae0"><path d="M 150 293 L 154 293 L 154 296.558594 L 150 296.558594 Z M 150 293 " clip-rule="nonzero"/></clipPath><clipPath id="cf6e625c24"><path d="M 143 0.710938 L 147 0.710938 L 147 5 L 143 5 Z M 143 0.710938 " clip-rule="nonzero"/></clipPath><clipPath id="f08c58a762"><path d="M 140 293 L 144 293 L 144 296.558594 L 140 296.558594 Z M 140 293 " clip-rule="nonzero"/></clipPath><clipPath id="940d4a6220"><path d="M 159 292 L 164 292 L 164 296.558594 L 159 296.558594 Z M 159 292 " clip-rule="nonzero"/></clipPath><clipPath id="632d1bbf35"><path d="M 0.644531 155 L 5 155 L 5 159 L 0.644531 159 Z M 0.644531 155 " clip-rule="nonzero"/></clipPath><clipPath id="c08417e9f3"><path d="M 0.644531 135 L 5 135 L 5 140 L 0.644531 140 Z M 0.644531 135 " clip-rule="nonzero"/></clipPath><clipPath id="68eb4b67e8"><rect x="0" width="297" y="0" height="297"/></clipPath><clipPath id="142ee03d43"><path d="M 0.484375 71.324219 L 154.949219 71.324219 L 154.949219 225.789062 L 0.484375 225.789062 Z M 0.484375 71.324219 " clip-rule="nonzero"/></clipPath><clipPath id="d3ac46a157"><path d="M 124.601562 71.324219 L 279.066406 71.324219 L 279.066406 225.789062 L 124.601562 225.789062 Z M 124.601562 71.324219 " clip-rule="nonzero"/></clipPath><clipPath id="fdc9cb752a"><path d="M 247.71875 71.324219 L 402.183594 71.324219 L 402.183594 225.789062 L 247.71875 225.789062 Z M 247.71875 71.324219 " clip-rule="nonzero"/></clipPath></defs><g clip-path="url(#dad338bcad)"><g mask="url(#bede099755)"><g transform="matrix(1, 0, 0, 1, 54, 0.000000000000028311)"><g clip-path="url(#68eb4b67e8)"><path fill="#ffab08" d="M 83.410156 281.421875 C 84.398438 281.90625 85.386719 282.378906 86.386719 282.84375 L 87.753906 279.894531 C 86.78125 279.441406 85.808594 278.980469 84.839844 278.5 L 83.410156 281.421875 " fill-opacity="1" fill-rule="nonzero"/><path fill="#ffab08" d="M 66.285156 271.535156 C 67.191406 272.144531 68.117188 272.75 69.042969 273.34375 L 70.789062 270.601562 C 69.882812 270.019531 68.980469 269.433594 68.09375 268.835938 L 66.285156 271.535156 " fill-opacity="1" fill-rule="nonzero"/><path fill="#ffab08" d="M 77.140625 19.050781 L 78.707031 21.894531 C 79.644531 21.375 80.589844 20.867188 81.535156 20.378906 L 80.039062 17.496094 C 79.0625 18 78.097656 18.523438 77.140625 19.050781 " fill-opacity="1" fill-rule="nonzero"/><path fill="#ffab08" d="M 74.675781 276.761719 C 75.625 277.3125 76.585938 277.851562 77.550781 278.382812 L 79.113281 275.535156 C 78.167969 275.015625 77.230469 274.488281 76.300781 273.949219 L 74.675781 276.761719 " fill-opacity="1" fill-rule="nonzero"/><path fill="#ffab08" d="M 92.441406 285.488281 C 93.457031 285.90625 94.480469 286.308594 95.511719 286.703125 L 96.671875 283.671875 C 95.664062 283.28125 94.660156 282.882812 93.667969 282.480469 L 92.441406 285.488281 " fill-opacity="1" fill-rule="nonzero"/><path fill="#ffab08" d="M 111.207031 291.746094 C 112.269531 292.019531 113.332031 292.28125 114.402344 292.535156 L 115.152344 289.375 C 114.109375 289.125 113.0625 288.871094 112.027344 288.597656 L 111.207031 291.746094 " fill-opacity="1" fill-rule="nonzero"/><path fill="#ffab08" d="M 123.507812 2.816406 L 124.046875 6.023438 C 125.109375 5.84375 126.167969 5.671875 127.234375 5.519531 L 126.757812 2.300781 C 125.675781 2.460938 124.589844 2.640625 123.507812 2.816406 " fill-opacity="1" fill-rule="nonzero"/><path fill="#ffab08" d="M 120.84375 293.902344 C 121.921875 294.109375 123.003906 294.300781 124.089844 294.480469 L 124.621094 291.273438 C 123.5625 291.097656 122.507812 290.910156 121.453125 290.707031 L 120.84375 293.902344 " fill-opacity="1" fill-rule="nonzero"/><path fill="#ffab08" d="M 104.300781 7.4375 L 105.273438 10.542969 C 106.292969 10.226562 107.328125 9.917969 108.359375 9.617188 L 107.457031 6.492188 C 106.402344 6.796875 105.351562 7.109375 104.300781 7.4375 " fill-opacity="1" fill-rule="nonzero"/><path fill="#ffab08" d="M 94.976562 10.703125 L 96.15625 13.734375 C 97.160156 13.34375 98.160156 12.964844 99.171875 12.597656 L 98.0625 9.546875 C 97.027344 9.921875 96.003906 10.300781 94.976562 10.703125 " fill-opacity="1" fill-rule="nonzero"/><path fill="#ffab08" d="M 288.738281 112.972656 L 291.886719 112.175781 C 291.617188 111.113281 291.335938 110.046875 291.042969 108.996094 L 287.914062 109.859375 C 288.203125 110.890625 288.476562 111.929688 288.738281 112.972656 " fill-opacity="1" fill-rule="nonzero"/><path fill="#ffab08" d="M 290.792969 122.417969 L 293.992188 121.828125 C 293.792969 120.75 293.582031 119.667969 293.363281 118.597656 L 290.179688 119.257812 C 290.398438 120.304688 290.597656 121.355469 290.792969 122.417969 " fill-opacity="1" fill-rule="nonzero"/><g clip-path="url(#7295fa3e31)"><path fill="#ffab08" d="M 3.914062 145.660156 L 0.664062 145.59375 C 0.644531 146.597656 0.632812 147.597656 0.632812 148.601562 L 0.632812 148.882812 L 3.886719 148.601562 C 3.886719 147.617188 3.894531 146.640625 3.914062 145.660156 " fill-opacity="1" fill-rule="nonzero"/></g><path fill="#ffab08" d="M 130.605469 295.414062 C 131.691406 295.546875 132.78125 295.664062 133.878906 295.773438 L 134.199219 292.542969 C 133.125 292.433594 132.0625 292.316406 130.996094 292.1875 L 130.605469 295.414062 " fill-opacity="1" fill-rule="nonzero"/><path fill="#ffab08" d="M 58.261719 265.761719 C 59.128906 266.433594 60.003906 267.09375 60.894531 267.742188 L 62.816406 265.128906 C 61.953125 264.492188 61.097656 263.84375 60.246094 263.191406 L 58.261719 265.761719 " fill-opacity="1" fill-rule="nonzero"/><g clip-path="url(#7c746d0691)"><path fill="#ffab08" d="M 292.59375 161.472656 L 295.828125 161.757812 C 295.921875 160.664062 296.011719 159.570312 296.085938 158.472656 L 292.84375 158.257812 C 292.769531 159.332031 292.6875 160.402344 292.59375 161.472656 " fill-opacity="1" fill-rule="nonzero"/></g><g clip-path="url(#4a8e7c4b8d)"><path fill="#ffab08" d="M 292.992188 141.601562 L 296.238281 141.445312 C 296.183594 140.347656 296.121094 139.25 296.046875 138.160156 L 292.804688 138.386719 C 292.878906 139.453125 292.9375 140.527344 292.992188 141.601562 " fill-opacity="1" fill-rule="nonzero"/></g><path fill="#ffab08" d="M 292.210938 131.972656 L 295.445312 131.601562 C 295.316406 130.507812 295.183594 129.421875 295.03125 128.332031 L 291.808594 128.773438 C 291.953125 129.832031 292.089844 130.902344 292.210938 131.972656 " fill-opacity="1" fill-rule="nonzero"/><path fill="#ffab08" d="M 15.140625 212.554688 C 15.613281 213.542969 16.101562 214.519531 16.59375 215.496094 L 19.496094 214.03125 C 19.007812 213.074219 18.535156 212.113281 18.070312 211.144531 L 15.140625 212.554688 " fill-opacity="1" fill-rule="nonzero"/><path fill="#ffab08" d="M 43.460938 252.6875 C 44.234375 253.464844 45.011719 254.238281 45.800781 254.996094 L 48.0625 252.660156 C 47.289062 251.914062 46.523438 251.160156 45.769531 250.394531 L 43.460938 252.6875 " fill-opacity="1" fill-rule="nonzero"/><path fill="#ffab08" d="M 52.816406 35.847656 L 54.925781 38.324219 C 55.742188 37.628906 56.566406 36.945312 57.402344 36.265625 L 55.351562 33.746094 C 54.5 34.4375 53.652344 35.140625 52.816406 35.847656 " fill-opacity="1" fill-rule="nonzero"/><path fill="#ffab08" d="M 38.660156 49.597656 L 41.070312 51.777344 C 41.792969 50.976562 42.519531 50.1875 43.25 49.40625 L 40.890625 47.179688 C 40.136719 47.972656 39.394531 48.78125 38.660156 49.597656 " fill-opacity="1" fill-rule="nonzero"/><path fill="#ffab08" d="M 30.53125 237.773438 C 31.191406 238.648438 31.859375 239.515625 32.539062 240.375 L 35.089844 238.355469 C 34.425781 237.515625 33.769531 236.667969 33.121094 235.8125 L 30.53125 237.773438 " fill-opacity="1" fill-rule="nonzero"/><g clip-path="url(#c42fbabb54)"><path fill="#ffab08" d="M 152.917969 4.03125 C 153.996094 4.0625 155.066406 4.105469 156.136719 4.160156 L 156.304688 0.917969 C 155.214844 0.863281 154.117188 0.8125 153.015625 0.777344 L 152.917969 4.03125 " fill-opacity="1" fill-rule="nonzero"/></g><path fill="#ffab08" d="M 217.679688 21.539062 C 218.625 22.050781 219.558594 22.574219 220.492188 23.113281 L 222.121094 20.300781 C 221.164062 19.75 220.207031 19.214844 219.238281 18.683594 L 217.679688 21.539062 " fill-opacity="1" fill-rule="nonzero"/><path fill="#ffab08" d="M 223.652344 272.222656 L 225.339844 274.992188 C 226.28125 274.421875 227.207031 273.84375 228.128906 273.25 L 226.375 270.515625 C 225.476562 271.09375 224.566406 271.664062 223.652344 272.222656 " fill-opacity="1" fill-rule="nonzero"/><path fill="#ffab08" d="M 231.722656 266.925781 L 233.585938 269.585938 C 234.488281 268.957031 235.375 268.3125 236.257812 267.664062 L 234.328125 265.050781 C 233.464844 265.683594 232.597656 266.308594 231.722656 266.925781 " fill-opacity="1" fill-rule="nonzero"/><path fill="#ffab08" d="M 200.105469 13.433594 C 201.113281 13.820312 202.121094 14.21875 203.117188 14.617188 L 204.335938 11.613281 C 203.320312 11.191406 202.296875 10.792969 201.269531 10.394531 L 200.105469 13.433594 " fill-opacity="1" fill-rule="nonzero"/><path fill="#ffab08" d="M 233.996094 31.910156 C 234.863281 32.546875 235.722656 33.195312 236.574219 33.847656 L 238.550781 31.269531 C 237.683594 30.605469 236.804688 29.941406 235.917969 29.292969 L 233.996094 31.910156 " fill-opacity="1" fill-rule="nonzero"/><path fill="#ffab08" d="M 215.253906 276.960938 L 216.757812 279.84375 C 217.726562 279.332031 218.691406 278.820312 219.648438 278.292969 L 218.089844 275.441406 C 217.148438 275.957031 216.199219 276.460938 215.253906 276.960938 " fill-opacity="1" fill-rule="nonzero"/><path fill="#ffab08" d="M 197.605469 284.699219 L 198.707031 287.757812 C 199.742188 287.382812 200.769531 287 201.792969 286.605469 L 200.625 283.570312 C 199.617188 283.960938 198.617188 284.335938 197.605469 284.699219 " fill-opacity="1" fill-rule="nonzero"/><path fill="#ffab08" d="M 276.148438 216.707031 L 279.011719 218.246094 C 279.535156 217.269531 280.046875 216.296875 280.542969 215.3125 L 277.640625 213.847656 C 277.15625 214.804688 276.660156 215.757812 276.148438 216.707031 " fill-opacity="1" fill-rule="nonzero"/><g clip-path="url(#139ef421ce)"><path fill="#ffab08" d="M 296.402344 148.039062 L 293.15625 148.039062 L 293.160156 148.601562 C 293.160156 149.679688 293.148438 150.753906 293.121094 151.824219 L 296.375 151.890625 C 296.398438 150.796875 296.40625 149.703125 296.40625 148.574219 L 296.402344 148.039062 " fill-opacity="1" fill-rule="nonzero"/></g><path fill="#ffab08" d="M 260.003906 240.765625 L 262.503906 242.839844 C 263.207031 241.996094 263.894531 241.136719 264.578125 240.273438 L 262.027344 238.261719 C 261.363281 239.105469 260.6875 239.9375 260.003906 240.765625 " fill-opacity="1" fill-rule="nonzero"/><path fill="#ffab08" d="M 246.722656 254.785156 L 248.933594 257.175781 C 249.734375 256.425781 250.53125 255.675781 251.320312 254.90625 L 249.0625 252.570312 C 248.292969 253.320312 247.515625 254.058594 246.722656 254.785156 " fill-opacity="1" fill-rule="nonzero"/><path fill="#ffab08" d="M 253.597656 248 L 255.957031 250.234375 C 256.710938 249.4375 257.453125 248.632812 258.195312 247.820312 L 255.78125 245.632812 C 255.0625 246.433594 254.335938 247.222656 253.597656 248 " fill-opacity="1" fill-rule="nonzero"/><path fill="#ffab08" d="M 188.414062 287.667969 L 189.300781 290.792969 C 190.363281 290.488281 191.414062 290.175781 192.460938 289.851562 L 191.496094 286.75 C 190.476562 287.066406 189.445312 287.375 188.414062 287.667969 " fill-opacity="1" fill-rule="nonzero"/><g clip-path="url(#22a71f7ae0)"><path fill="#ffab08" d="M 150.28125 293.230469 L 150.320312 296.480469 C 151.417969 296.46875 152.519531 296.441406 153.609375 296.40625 L 153.496094 293.15625 C 152.429688 293.195312 151.359375 293.21875 150.28125 293.230469 " fill-opacity="1" fill-rule="nonzero"/></g><path fill="#ffab08" d="M 190.945312 10.28125 C 191.976562 10.601562 193.003906 10.925781 194.027344 11.265625 L 195.046875 8.183594 C 194.007812 7.835938 192.953125 7.503906 191.898438 7.179688 L 190.945312 10.28125 " fill-opacity="1" fill-rule="nonzero"/><path fill="#ffab08" d="M 19.703125 221.296875 C 20.246094 222.25 20.789062 223.195312 21.351562 224.132812 L 24.144531 222.476562 C 23.597656 221.550781 23.058594 220.625 22.527344 219.695312 L 19.703125 221.296875 " fill-opacity="1" fill-rule="nonzero"/><g clip-path="url(#cf6e625c24)"><path fill="#ffab08" d="M 143.144531 0.808594 L 143.257812 4.058594 C 144.332031 4.019531 145.40625 3.996094 146.480469 3.976562 L 146.425781 0.726562 C 145.328125 0.742188 144.238281 0.769531 143.144531 0.808594 " fill-opacity="1" fill-rule="nonzero"/></g><g clip-path="url(#f08c58a762)"><path fill="#ffab08" d="M 140.453125 296.269531 C 141.539062 296.328125 142.636719 296.378906 143.742188 296.414062 L 143.839844 293.164062 C 142.765625 293.128906 141.695312 293.082031 140.621094 293.023438 L 140.453125 296.269531 " fill-opacity="1" fill-rule="nonzero"/></g><path fill="#ffab08" d="M 162.5625 4.640625 C 163.632812 4.738281 164.703125 4.859375 165.769531 4.984375 L 166.148438 1.757812 C 165.058594 1.628906 163.96875 1.511719 162.875 1.402344 L 162.5625 4.640625 " fill-opacity="1" fill-rule="nonzero"/><path fill="#ffab08" d="M 291.425781 171.054688 L 294.636719 171.558594 C 294.804688 170.480469 294.960938 169.390625 295.109375 168.296875 L 291.882812 167.871094 C 291.746094 168.9375 291.59375 170 291.425781 171.054688 " fill-opacity="1" fill-rule="nonzero"/><path fill="#ffab08" d="M 133.292969 1.488281 L 133.621094 4.722656 C 134.6875 4.613281 135.757812 4.511719 136.828125 4.429688 L 136.574219 1.191406 C 135.476562 1.277344 134.382812 1.375 133.292969 1.488281 " fill-opacity="1" fill-rule="nonzero"/><path fill="#ffab08" d="M 181.617188 7.769531 C 182.664062 8.011719 183.707031 8.269531 184.746094 8.535156 L 185.554688 5.390625 C 184.492188 5.113281 183.425781 4.851562 182.355469 4.601562 L 181.617188 7.769531 " fill-opacity="1" fill-rule="nonzero"/><path fill="#ffab08" d="M 172.140625 5.886719 C 173.203125 6.0625 174.257812 6.246094 175.308594 6.445312 L 175.914062 3.25 C 174.835938 3.042969 173.753906 2.859375 172.671875 2.679688 L 172.140625 5.886719 " fill-opacity="1" fill-rule="nonzero"/><path fill="#ffab08" d="M 179.039062 290.015625 L 179.726562 293.195312 C 180.796875 292.960938 181.871094 292.714844 182.9375 292.464844 L 182.179688 289.300781 C 181.140625 289.546875 180.09375 289.789062 179.039062 290.015625 " fill-opacity="1" fill-rule="nonzero"/><path fill="#ffab08" d="M 169.535156 291.726562 L 169.996094 294.945312 C 171.082031 294.785156 172.171875 294.617188 173.253906 294.433594 L 172.714844 291.230469 C 171.65625 291.402344 170.59375 291.574219 169.535156 291.726562 " fill-opacity="1" fill-rule="nonzero"/><g clip-path="url(#940d4a6220)"><path fill="#ffab08" d="M 159.933594 292.796875 L 160.183594 296.035156 C 161.28125 295.949219 162.371094 295.855469 163.464844 295.746094 L 163.140625 292.511719 C 162.070312 292.621094 161 292.710938 159.933594 292.796875 " fill-opacity="1" fill-rule="nonzero"/></g><path fill="#ffab08" d="M 10.898438 193.242188 L 7.808594 194.246094 C 8.148438 195.292969 8.5 196.335938 8.863281 197.367188 L 11.929688 196.296875 C 11.578125 195.28125 11.234375 194.265625 10.898438 193.242188 " fill-opacity="1" fill-rule="nonzero"/><path fill="#ffab08" d="M 14.1875 202.328125 L 11.171875 203.53125 C 11.578125 204.554688 11.996094 205.566406 12.425781 206.574219 L 15.414062 205.289062 C 14.992188 204.308594 14.585938 203.320312 14.1875 202.328125 " fill-opacity="1" fill-rule="nonzero"/><path fill="#ffab08" d="M 16.496094 89.433594 L 13.53125 88.105469 C 13.082031 89.109375 12.640625 90.121094 12.214844 91.128906 L 15.207031 92.402344 C 15.625 91.40625 16.058594 90.417969 16.496094 89.433594 " fill-opacity="1" fill-rule="nonzero"/><g clip-path="url(#632d1bbf35)"><path fill="#ffab08" d="M 4.035156 155.324219 L 0.792969 155.472656 C 0.84375 156.570312 0.902344 157.667969 0.976562 158.757812 L 4.21875 158.542969 C 4.148438 157.472656 4.085938 156.398438 4.035156 155.324219 " fill-opacity="1" fill-rule="nonzero"/></g><g clip-path="url(#c08417e9f3)"><path fill="#ffab08" d="M 4.421875 136.011719 L 1.183594 135.734375 C 1.09375 136.824219 1.007812 137.917969 0.9375 139.015625 L 4.183594 139.226562 C 4.25 138.152344 4.332031 137.078125 4.421875 136.011719 " fill-opacity="1" fill-rule="nonzero"/></g><path fill="#ffab08" d="M 12.835938 98.394531 L 9.785156 97.273438 C 9.402344 98.304688 9.03125 99.34375 8.671875 100.386719 L 11.746094 101.445312 C 12.097656 100.417969 12.464844 99.410156 12.835938 98.394531 " fill-opacity="1" fill-rule="nonzero"/><path fill="#ffab08" d="M 5.574219 126.421875 L 2.363281 125.925781 C 2.195312 127.007812 2.042969 128.09375 1.894531 129.1875 L 5.121094 129.609375 C 5.261719 128.546875 5.414062 127.476562 5.574219 126.421875 " fill-opacity="1" fill-rule="nonzero"/><path fill="#ffab08" d="M 248.78125 44.351562 C 249.558594 45.097656 250.324219 45.847656 251.078125 46.605469 L 253.382812 44.316406 C 252.609375 43.539062 251.824219 42.769531 251.03125 42.007812 L 248.78125 44.351562 " fill-opacity="1" fill-rule="nonzero"/><path fill="#ffab08" d="M 50.636719 259.46875 C 51.464844 260.195312 52.292969 260.914062 53.128906 261.621094 L 55.230469 259.140625 C 54.414062 258.445312 53.597656 257.746094 52.789062 257.03125 L 50.636719 259.46875 " fill-opacity="1" fill-rule="nonzero"/><path fill="#ffab08" d="M 9.78125 107.574219 L 6.667969 106.652344 C 6.355469 107.703125 6.058594 108.761719 5.769531 109.824219 L 8.902344 110.671875 C 9.1875 109.636719 9.476562 108.605469 9.78125 107.574219 " fill-opacity="1" fill-rule="nonzero"/><path fill="#ffab08" d="M 45.507812 42.488281 L 47.777344 44.820312 C 48.542969 44.070312 49.324219 43.332031 50.113281 42.59375 L 47.894531 40.21875 C 47.089844 40.972656 46.296875 41.722656 45.507812 42.488281 " fill-opacity="1" fill-rule="nonzero"/><path fill="#ffab08" d="M 226.011719 26.453125 C 226.914062 27.03125 227.816406 27.617188 228.714844 28.214844 L 230.515625 25.511719 C 229.601562 24.898438 228.679688 24.300781 227.757812 23.707031 L 226.011719 26.453125 " fill-opacity="1" fill-rule="nonzero"/><path fill="#ffab08" d="M 30.960938 64.316406 L 28.324219 62.421875 C 27.6875 63.316406 27.054688 64.214844 26.433594 65.125 L 29.113281 66.957031 C 29.722656 66.070312 30.339844 65.191406 30.960938 64.316406 " fill-opacity="1" fill-rule="nonzero"/><path fill="#ffab08" d="M 25.589844 72.355469 L 22.824219 70.640625 C 22.242188 71.578125 21.671875 72.515625 21.113281 73.464844 L 23.914062 75.113281 C 24.460938 74.191406 25.019531 73.269531 25.589844 72.355469 " fill-opacity="1" fill-rule="nonzero"/><path fill="#ffab08" d="M 24.835938 229.707031 C 25.4375 230.628906 26.050781 231.535156 26.675781 232.441406 L 29.347656 230.59375 C 28.742188 229.710938 28.144531 228.824219 27.558594 227.929688 L 24.835938 229.707031 " fill-opacity="1" fill-rule="nonzero"/><path fill="#ffab08" d="M 20.757812 80.738281 L 17.886719 79.214844 C 17.371094 80.1875 16.863281 81.164062 16.371094 82.144531 L 19.273438 83.605469 C 19.757812 82.648438 20.25 81.691406 20.757812 80.738281 " fill-opacity="1" fill-rule="nonzero"/><path fill="#ffab08" d="M 85.921875 14.578125 L 87.296875 17.519531 C 88.265625 17.070312 89.242188 16.632812 90.226562 16.195312 L 88.910156 13.222656 C 87.910156 13.664062 86.914062 14.113281 85.921875 14.578125 " fill-opacity="1" fill-rule="nonzero"/><path fill="#ffab08" d="M 68.671875 24.105469 L 70.429688 26.832031 C 71.332031 26.25 72.238281 25.683594 73.152344 25.125 L 71.453125 22.351562 C 70.515625 22.929688 69.59375 23.511719 68.671875 24.105469 " fill-opacity="1" fill-rule="nonzero"/><path fill="#ffab08" d="M 101.71875 288.929688 C 102.765625 289.28125 103.816406 289.617188 104.871094 289.941406 L 105.824219 286.835938 C 104.796875 286.519531 103.773438 286.191406 102.753906 285.847656 L 101.71875 288.929688 " fill-opacity="1" fill-rule="nonzero"/><path fill="#ffab08" d="M 60.546875 29.710938 L 62.484375 32.324219 C 63.34375 31.683594 64.214844 31.058594 65.089844 30.4375 L 63.210938 27.78125 C 62.316406 28.417969 61.429688 29.0625 60.546875 29.710938 " fill-opacity="1" fill-rule="nonzero"/><path fill="#ffab08" d="M 36.738281 245.4375 C 37.460938 246.269531 38.1875 247.089844 38.925781 247.90625 L 41.332031 245.71875 C 40.609375 244.929688 39.898438 244.125 39.195312 243.308594 L 36.738281 245.4375 " fill-opacity="1" fill-rule="nonzero"/><path fill="#ffab08" d="M 8.238281 183.960938 L 5.082031 184.75 C 5.351562 185.816406 5.632812 186.878906 5.925781 187.9375 L 9.054688 187.074219 C 8.773438 186.039062 8.5 185.003906 8.238281 183.960938 " fill-opacity="1" fill-rule="nonzero"/><path fill="#ffab08" d="M 36.863281 56.65625 L 34.355469 54.585938 C 33.65625 55.433594 32.964844 56.292969 32.285156 57.15625 L 34.835938 59.167969 C 35.503906 58.324219 36.179688 57.484375 36.863281 56.65625 " fill-opacity="1" fill-rule="nonzero"/><path fill="#ffab08" d="M 113.824219 4.808594 L 114.585938 7.96875 C 115.628906 7.71875 116.671875 7.480469 117.722656 7.253906 L 117.039062 4.074219 C 115.960938 4.308594 114.890625 4.550781 113.824219 4.808594 " fill-opacity="1" fill-rule="nonzero"/><path fill="#ffab08" d="M 6.199219 174.515625 L 3 175.09375 C 3.195312 176.175781 3.402344 177.25 3.621094 178.328125 L 6.808594 177.679688 C 6.589844 176.628906 6.386719 175.570312 6.199219 174.515625 " fill-opacity="1" fill-rule="nonzero"/><path fill="#ffab08" d="M 260.109375 51.546875 C 259.386719 50.71875 258.65625 49.898438 257.921875 49.089844 L 255.515625 51.273438 C 256.242188 52.070312 256.949219 52.871094 257.660156 53.683594 L 260.109375 51.546875 " fill-opacity="1" fill-rule="nonzero"/><path fill="#ffab08" d="M 7.363281 116.929688 L 4.195312 116.214844 C 3.953125 117.285156 3.726562 118.363281 3.507812 119.441406 L 6.695312 120.074219 C 6.902344 119.019531 7.125 117.972656 7.363281 116.929688 " fill-opacity="1" fill-rule="nonzero"/><path fill="#ffab08" d="M 206.5625 281.121094 L 207.863281 284.097656 C 208.867188 283.65625 209.871094 283.207031 210.859375 282.746094 L 209.488281 279.800781 C 208.519531 280.25 207.542969 280.695312 206.5625 281.121094 " fill-opacity="1" fill-rule="nonzero"/><path fill="#ffab08" d="M 4.796875 164.957031 L 1.566406 165.320312 C 1.6875 166.414062 1.824219 167.503906 1.972656 168.589844 L 5.191406 168.152344 C 5.050781 167.089844 4.914062 166.027344 4.796875 164.957031 " fill-opacity="1" fill-rule="nonzero"/><path fill="#ffab08" d="M 241.597656 37.886719 C 242.417969 38.582031 243.230469 39.28125 244.042969 39.988281 L 246.1875 37.554688 C 245.359375 36.820312 244.527344 36.105469 243.6875 35.398438 L 241.597656 37.886719 " fill-opacity="1" fill-rule="nonzero"/><path fill="#ffab08" d="M 209.027344 17.191406 C 210.011719 17.640625 210.980469 18.105469 211.945312 18.574219 L 213.375 15.65625 C 212.382812 15.171875 211.394531 14.703125 210.390625 14.238281 L 209.027344 17.191406 " fill-opacity="1" fill-rule="nonzero"/><path fill="#ffab08" d="M 239.425781 261.105469 L 241.464844 263.636719 C 242.316406 262.949219 243.167969 262.25 244.003906 261.539062 L 241.902344 259.058594 C 241.085938 259.75 240.261719 260.433594 239.425781 261.105469 " fill-opacity="1" fill-rule="nonzero"/><path fill="#ffab08" d="M 284.105469 199.070312 L 287.152344 200.207031 C 287.535156 199.179688 287.910156 198.140625 288.273438 197.09375 L 285.199219 196.03125 C 284.847656 197.046875 284.480469 198.0625 284.105469 199.070312 " fill-opacity="1" fill-rule="nonzero"/><path fill="#ffab08" d="M 287.171875 189.894531 L 290.292969 190.828125 C 290.601562 189.773438 290.90625 188.714844 291.195312 187.65625 L 288.058594 186.800781 C 287.777344 187.832031 287.484375 188.867188 287.171875 189.894531 " fill-opacity="1" fill-rule="nonzero"/><path fill="#ffab08" d="M 271.304688 225.078125 L 274.058594 226.804688 C 274.640625 225.875 275.214844 224.933594 275.773438 223.984375 L 272.980469 222.324219 C 272.433594 223.25 271.875 224.167969 271.304688 225.078125 " fill-opacity="1" fill-rule="nonzero"/><path fill="#ffab08" d="M 289.617188 180.550781 L 292.785156 181.265625 C 293.027344 180.195312 293.257812 179.121094 293.480469 178.046875 L 290.292969 177.398438 C 290.078125 178.453125 289.855469 179.507812 289.617188 180.550781 " fill-opacity="1" fill-rule="nonzero"/><path fill="#ffab08" d="M 282.746094 94.621094 L 285.761719 93.40625 C 285.347656 92.390625 284.929688 91.382812 284.503906 90.375 L 281.511719 91.660156 C 281.933594 92.636719 282.347656 93.628906 282.746094 94.621094 " fill-opacity="1" fill-rule="nonzero"/><path fill="#ffab08" d="M 281.78125 84.402344 C 281.304688 83.410156 280.816406 82.429688 280.320312 81.453125 L 277.425781 82.933594 C 277.910156 83.882812 278.382812 84.847656 278.851562 85.808594 L 281.78125 84.402344 " fill-opacity="1" fill-rule="nonzero"/><path fill="#ffab08" d="M 286.058594 103.699219 L 289.140625 102.683594 C 288.800781 101.640625 288.449219 100.605469 288.085938 99.566406 L 285.019531 100.648438 C 285.375 101.65625 285.71875 102.675781 286.058594 103.699219 " fill-opacity="1" fill-rule="nonzero"/><path fill="#ffab08" d="M 280.425781 208.03125 L 283.390625 209.359375 C 283.84375 208.355469 284.28125 207.347656 284.710938 206.335938 L 281.722656 205.066406 C 281.296875 206.058594 280.863281 207.046875 280.425781 208.03125 " fill-opacity="1" fill-rule="nonzero"/><path fill="#ffab08" d="M 277.199219 75.660156 C 276.65625 74.707031 276.101562 73.761719 275.542969 72.820312 L 272.75 74.492188 C 273.304688 75.410156 273.84375 76.339844 274.371094 77.269531 L 277.199219 75.660156 " fill-opacity="1" fill-rule="nonzero"/><path fill="#ffab08" d="M 272.042969 67.25 C 271.4375 66.339844 270.824219 65.433594 270.207031 64.53125 L 267.53125 66.378906 C 268.140625 67.261719 268.742188 68.152344 269.335938 69.046875 L 272.042969 67.25 " fill-opacity="1" fill-rule="nonzero"/><path fill="#ffab08" d="M 265.914062 233.113281 L 268.554688 235.011719 C 269.195312 234.117188 269.832031 233.21875 270.449219 232.316406 L 267.769531 230.472656 C 267.160156 231.359375 266.542969 232.238281 265.914062 233.113281 " fill-opacity="1" fill-rule="nonzero"/><path fill="#ffab08" d="M 266.339844 59.203125 C 265.679688 58.328125 265.003906 57.460938 264.316406 56.605469 L 261.78125 58.628906 C 262.445312 59.46875 263.101562 60.316406 263.75 61.167969 L 266.339844 59.203125 " fill-opacity="1" fill-rule="nonzero"/></g></g></g></g><g clip-path="url(#142ee03d43)"><path fill="#e75a70" d="M 77.761719 225.882812 C 35.164062 225.882812 0.484375 191.203125 0.484375 148.601562 C 0.484375 106.003906 35.164062 71.324219 77.761719 71.324219 C 120.363281 71.324219 155.042969 106.003906 155.042969 148.601562 C 155.042969 191.203125 120.363281 225.882812 77.761719 225.882812 Z M 77.761719 72.464844 C 35.773438 72.464844 1.625 106.613281 1.625 148.601562 C 1.625 190.59375 35.773438 224.738281 77.761719 224.738281 C 119.753906 224.738281 153.902344 190.59375 153.902344 148.601562 C 153.902344 106.613281 119.753906 72.464844 77.761719 72.464844 Z M 77.761719 72.464844 " fill-opacity="1" fill-rule="nonzero"/></g><g clip-path="url(#d3ac46a157)"><path fill="#e75a70" d="M 201.882812 225.882812 C 159.285156 225.882812 124.601562 191.203125 124.601562 148.601562 C 124.601562 106.003906 159.285156 71.324219 201.882812 71.324219 C 244.480469 71.324219 279.160156 106.003906 279.160156 148.601562 C 279.160156 191.203125 244.480469 225.882812 201.882812 225.882812 Z M 201.882812 72.464844 C 159.890625 72.464844 125.746094 106.613281 125.746094 148.601562 C 125.746094 190.59375 159.890625 224.738281 201.882812 224.738281 C 243.871094 224.738281 278.019531 190.59375 278.019531 148.601562 C 278.019531 106.613281 243.871094 72.464844 201.882812 72.464844 Z M 201.882812 72.464844 " fill-opacity="1" fill-rule="nonzero"/></g><g clip-path="url(#fdc9cb752a)"><path fill="#e75a70" d="M 325 225.882812 C 282.402344 225.882812 247.71875 191.203125 247.71875 148.601562 C 247.71875 106.003906 282.402344 71.324219 325 71.324219 C 367.597656 71.324219 402.277344 106.003906 402.277344 148.601562 C 402.277344 191.203125 367.597656 225.882812 325 225.882812 Z M 325 72.464844 C 283.007812 72.464844 248.863281 106.613281 248.863281 148.601562 C 248.863281 190.59375 283.007812 224.738281 325 224.738281 C 366.988281 224.738281 401.136719 190.59375 401.136719 148.601562 C 401.136719 106.613281 366.988281 72.464844 325 72.464844 Z M 325 72.464844 " fill-opacity="1" fill-rule="nonzero"/></g><g fill="#230d1d" fill-opacity="1"><g transform="translate(36.851457, 160.429908)"><g><path d="M 11.78125 0.203125 C 9.601562 0.203125 7.71875 -0.28125 6.125 -1.25 C 4.539062 -2.226562 3.328125 -3.53125 2.484375 -5.15625 C 1.648438 -6.789062 1.234375 -8.585938 1.234375 -10.546875 C 1.234375 -12.628906 1.6875 -14.488281 2.59375 -16.125 C 3.5 -17.769531 4.769531 -19.050781 6.40625 -19.96875 C 8.039062 -20.894531 9.898438 -21.359375 11.984375 -21.359375 C 12.910156 -21.359375 13.78125 -21.257812 14.59375 -21.0625 C 15.40625 -20.863281 16.078125 -20.632812 16.609375 -20.375 C 17.140625 -20.113281 17.492188 -19.898438 17.671875 -19.734375 L 16.265625 -16.875 C 15.109375 -17.90625 13.59375 -18.421875 11.71875 -18.421875 C 10.40625 -18.421875 9.210938 -18.09375 8.140625 -17.4375 C 7.078125 -16.789062 6.238281 -15.867188 5.625 -14.671875 C 5.019531 -13.472656 4.71875 -12.082031 4.71875 -10.5 C 4.71875 -9.050781 4.988281 -7.734375 5.53125 -6.546875 C 6.070312 -5.367188 6.867188 -4.4375 7.921875 -3.75 C 8.972656 -3.0625 10.222656 -2.71875 11.671875 -2.71875 C 13.347656 -2.71875 14.96875 -3.191406 16.53125 -4.140625 L 17.46875 -1.4375 C 17.050781 -1.050781 16.285156 -0.679688 15.171875 -0.328125 C 14.054688 0.0234375 12.925781 0.203125 11.78125 0.203125 Z M 11.78125 0.203125 "/></g></g></g><g fill="#230d1d" fill-opacity="1"><g transform="translate(56.66636, 160.429908)"><g><path d="M 8.15625 0.28125 C 6.800781 0.28125 5.597656 -0.0195312 4.546875 -0.625 C 3.492188 -1.238281 2.679688 -2.066406 2.109375 -3.109375 C 1.546875 -4.160156 1.265625 -5.328125 1.265625 -6.609375 C 1.265625 -7.867188 1.539062 -9.019531 2.09375 -10.0625 C 2.65625 -11.113281 3.460938 -11.941406 4.515625 -12.546875 C 5.566406 -13.160156 6.78125 -13.46875 8.15625 -13.46875 C 9.519531 -13.46875 10.722656 -13.160156 11.765625 -12.546875 C 12.804688 -11.941406 13.609375 -11.113281 14.171875 -10.0625 C 14.734375 -9.019531 15.015625 -7.867188 15.015625 -6.609375 C 15.015625 -5.328125 14.726562 -4.160156 14.15625 -3.109375 C 13.582031 -2.066406 12.773438 -1.238281 11.734375 -0.625 C 10.691406 -0.0195312 9.5 0.28125 8.15625 0.28125 Z M 8.234375 -2.234375 C 9.335938 -2.234375 10.207031 -2.640625 10.84375 -3.453125 C 11.488281 -4.273438 11.8125 -5.304688 11.8125 -6.546875 C 11.8125 -7.785156 11.46875 -8.828125 10.78125 -9.671875 C 10.09375 -10.523438 9.1875 -10.953125 8.0625 -10.953125 C 6.976562 -10.953125 6.101562 -10.53125 5.4375 -9.6875 C 4.78125 -8.851562 4.453125 -7.804688 4.453125 -6.546875 C 4.453125 -5.328125 4.804688 -4.300781 5.515625 -3.46875 C 6.222656 -2.644531 7.128906 -2.234375 8.234375 -2.234375 Z M 8.234375 -2.234375 "/></g></g></g><g fill="#230d1d" fill-opacity="1"><g transform="translate(74.193866, 160.429908)"><g><path d="M 7.828125 0.28125 C 6.648438 0.28125 5.5625 0 4.5625 -0.5625 C 3.5625 -1.125 2.757812 -1.921875 2.15625 -2.953125 C 1.5625 -3.992188 1.265625 -5.210938 1.265625 -6.609375 C 1.265625 -8.679688 1.84375 -10.34375 3 -11.59375 C 4.164062 -12.84375 5.738281 -13.46875 7.71875 -13.46875 C 8.820312 -13.46875 9.832031 -13.195312 10.75 -12.65625 C 11.664062 -12.113281 12.285156 -11.457031 12.609375 -10.6875 L 12.46875 -12.921875 L 12.46875 -21.015625 L 15.5 -21.015625 L 15.5 0 L 12.546875 0 L 12.5 -2.3125 C 12.175781 -1.625 11.582031 -1.019531 10.71875 -0.5 C 9.863281 0.0195312 8.898438 0.28125 7.828125 0.28125 Z M 8.34375 -2.3125 C 9.4375 -2.3125 10.351562 -2.6875 11.09375 -3.4375 C 11.832031 -4.195312 12.203125 -5.1875 12.203125 -6.40625 L 12.203125 -6.609375 C 12.203125 -7.421875 12.03125 -8.148438 11.6875 -8.796875 C 11.351562 -9.453125 10.890625 -9.957031 10.296875 -10.3125 C 9.703125 -10.675781 9.050781 -10.859375 8.34375 -10.859375 C 7.125 -10.859375 6.179688 -10.460938 5.515625 -9.671875 C 4.847656 -8.890625 4.515625 -7.867188 4.515625 -6.609375 C 4.515625 -5.328125 4.84375 -4.289062 5.5 -3.5 C 6.15625 -2.707031 7.101562 -2.3125 8.34375 -2.3125 Z M 8.34375 -2.3125 "/></g></g></g><g fill="#230d1d" fill-opacity="1"><g transform="translate(93.008033, 160.429908)"><g><path d="M 8.234375 0.28125 C 6.671875 0.28125 5.363281 -0.0234375 4.3125 -0.640625 C 3.269531 -1.265625 2.5 -2.09375 2 -3.125 C 1.507812 -4.164062 1.265625 -5.304688 1.265625 -6.546875 C 1.265625 -7.941406 1.550781 -9.160156 2.125 -10.203125 C 2.707031 -11.253906 3.515625 -12.0625 4.546875 -12.625 C 5.578125 -13.1875 6.738281 -13.46875 8.03125 -13.46875 C 10.050781 -13.46875 11.550781 -12.910156 12.53125 -11.796875 C 13.519531 -10.679688 14.015625 -9.113281 14.015625 -7.09375 C 14.015625 -6.570312 13.984375 -6.035156 13.921875 -5.484375 L 4.484375 -5.484375 C 4.691406 -4.328125 5.101562 -3.488281 5.71875 -2.96875 C 6.34375 -2.457031 7.210938 -2.203125 8.328125 -2.203125 C 9.234375 -2.203125 9.984375 -2.273438 10.578125 -2.421875 C 11.171875 -2.578125 11.710938 -2.789062 12.203125 -3.0625 L 13.15625 -0.859375 C 12.675781 -0.554688 12.023438 -0.289062 11.203125 -0.0625 C 10.390625 0.164062 9.398438 0.28125 8.234375 0.28125 Z M 11.015625 -7.640625 C 11.023438 -8.816406 10.765625 -9.644531 10.234375 -10.125 C 9.703125 -10.613281 8.941406 -10.859375 7.953125 -10.859375 C 5.953125 -10.859375 4.796875 -9.785156 4.484375 -7.640625 Z M 11.015625 -7.640625 "/></g></g></g><g fill="#230d1d" fill-opacity="1"><g transform="translate(165.580551, 160.429908)"><g><path d="M 11.78125 0.203125 C 9.601562 0.203125 7.71875 -0.28125 6.125 -1.25 C 4.539062 -2.226562 3.328125 -3.53125 2.484375 -5.15625 C 1.648438 -6.789062 1.234375 -8.585938 1.234375 -10.546875 C 1.234375 -12.628906 1.6875 -14.488281 2.59375 -16.125 C 3.5 -17.769531 4.769531 -19.050781 6.40625 -19.96875 C 8.039062 -20.894531 9.898438 -21.359375 11.984375 -21.359375 C 12.910156 -21.359375 13.78125 -21.257812 14.59375 -21.0625 C 15.40625 -20.863281 16.078125 -20.632812 16.609375 -20.375 C 17.140625 -20.113281 17.492188 -19.898438 17.671875 -19.734375 L 16.265625 -16.875 C 15.109375 -17.90625 13.59375 -18.421875 11.71875 -18.421875 C 10.40625 -18.421875 9.210938 -18.09375 8.140625 -17.4375 C 7.078125 -16.789062 6.238281 -15.867188 5.625 -14.671875 C 5.019531 -13.472656 4.71875 -12.082031 4.71875 -10.5 C 4.71875 -9.050781 4.988281 -7.734375 5.53125 -6.546875 C 6.070312 -5.367188 6.867188 -4.4375 7.921875 -3.75 C 8.972656 -3.0625 10.222656 -2.71875 11.671875 -2.71875 C 13.347656 -2.71875 14.96875 -3.191406 16.53125 -4.140625 L 17.46875 -1.4375 C 17.050781 -1.050781 16.285156 -0.679688 15.171875 -0.328125 C 14.054688 0.0234375 12.925781 0.203125 11.78125 0.203125 Z M 11.78125 0.203125 "/></g></g></g><g fill="#230d1d" fill-opacity="1"><g transform="translate(185.395455, 160.429908)"><g><path d="M 1.9375 -13.125 L 5.03125 -13.125 L 5.03125 -10.546875 C 5.332031 -11.421875 5.828125 -12.125 6.515625 -12.65625 C 7.203125 -13.195312 7.984375 -13.46875 8.859375 -13.46875 C 9.472656 -13.46875 9.894531 -13.410156 10.125 -13.296875 L 9.6875 -10.171875 C 9.519531 -10.285156 9.148438 -10.34375 8.578125 -10.34375 C 7.679688 -10.34375 6.863281 -10.054688 6.125 -9.484375 C 5.394531 -8.921875 5.03125 -8.007812 5.03125 -6.75 L 5.03125 0 L 1.9375 0 Z M 1.9375 -13.125 "/></g></g></g><g fill="#230d1d" fill-opacity="1"><g transform="translate(196.918552, 160.429908)"><g><path d="M 7.828125 0.28125 C 6.648438 0.28125 5.5625 0 4.5625 -0.5625 C 3.5625 -1.125 2.757812 -1.921875 2.15625 -2.953125 C 1.5625 -3.992188 1.265625 -5.210938 1.265625 -6.609375 C 1.265625 -7.972656 1.523438 -9.171875 2.046875 -10.203125 C 2.566406 -11.234375 3.3125 -12.035156 4.28125 -12.609375 C 5.257812 -13.179688 6.40625 -13.46875 7.71875 -13.46875 C 8.476562 -13.46875 9.191406 -13.332031 9.859375 -13.0625 C 10.523438 -12.800781 11.085938 -12.472656 11.546875 -12.078125 C 12.003906 -11.691406 12.3125 -11.304688 12.46875 -10.921875 L 12.53125 -13.125 L 15.46875 -13.125 L 15.46875 0 L 12.546875 0 L 12.5 -2.3125 C 12.175781 -1.625 11.582031 -1.019531 10.71875 -0.5 C 9.863281 0.0195312 8.898438 0.28125 7.828125 0.28125 Z M 8.34375 -2.28125 C 9.4375 -2.28125 10.351562 -2.65625 11.09375 -3.40625 C 11.832031 -4.164062 12.203125 -5.15625 12.203125 -6.375 L 12.203125 -6.578125 C 12.203125 -7.398438 12.03125 -8.132812 11.6875 -8.78125 C 11.351562 -9.425781 10.890625 -9.929688 10.296875 -10.296875 C 9.703125 -10.660156 9.050781 -10.84375 8.34375 -10.84375 C 7.125 -10.84375 6.179688 -10.445312 5.515625 -9.65625 C 4.847656 -8.863281 4.515625 -7.835938 4.515625 -6.578125 C 4.515625 -5.296875 4.84375 -4.257812 5.5 -3.46875 C 6.15625 -2.675781 7.101562 -2.28125 8.34375 -2.28125 Z M 8.34375 -2.28125 "/></g></g></g><g fill="#230d1d" fill-opacity="1"><g transform="translate(215.76131, 160.429908)"><g><path d="M 3.265625 -10.671875 L 1.140625 -10.671875 L 1.140625 -13.125 L 3.265625 -13.125 L 3.265625 -15.953125 C 3.265625 -17.671875 3.675781 -19 4.5 -19.9375 C 5.332031 -20.882812 6.550781 -21.359375 8.15625 -21.359375 C 8.800781 -21.359375 9.53125 -21.175781 10.34375 -20.8125 L 9.75 -17.90625 C 9.613281 -18.050781 9.40625 -18.195312 9.125 -18.34375 C 8.851562 -18.488281 8.554688 -18.5625 8.234375 -18.5625 C 6.953125 -18.5625 6.304688 -17.726562 6.296875 -16.0625 L 6.296875 -13.125 L 9.375 -13.125 L 9.375 -10.671875 L 6.296875 -10.671875 L 6.296875 0 L 3.265625 0 Z M 3.265625 -10.671875 "/></g></g></g><g fill="#230d1d" fill-opacity="1"><g transform="translate(227.370186, 160.429908)"><g><path d="M 3.171875 -10.609375 L 0.859375 -10.609375 L 0.859375 -13.125 L 3.171875 -13.125 L 3.171875 -18.46875 L 6.296875 -19.15625 L 6.296875 -13.125 L 9.328125 -13.125 L 9.328125 -10.609375 L 6.296875 -10.609375 L 6.296875 0 L 3.171875 0 Z M 3.171875 -10.609375 "/></g></g></g><g fill="#230d1d" fill-opacity="1"><g transform="translate(283.458574, 158.472275)"><g><path d="M 10.984375 0.1875 C 8.953125 0.1875 7.191406 -0.265625 5.703125 -1.171875 C 4.222656 -2.078125 3.09375 -3.289062 2.3125 -4.8125 C 1.53125 -6.332031 1.140625 -8.007812 1.140625 -9.84375 C 1.140625 -11.769531 1.5625 -13.5 2.40625 -15.03125 C 3.25 -16.5625 4.4375 -17.753906 5.96875 -18.609375 C 7.5 -19.472656 9.234375 -19.90625 11.171875 -19.90625 C 12.035156 -19.90625 12.84375 -19.8125 13.59375 -19.625 C 14.351562 -19.445312 14.984375 -19.234375 15.484375 -18.984375 C 15.984375 -18.742188 16.3125 -18.546875 16.46875 -18.390625 L 15.171875 -15.734375 C 14.085938 -16.691406 12.671875 -17.171875 10.921875 -17.171875 C 9.703125 -17.171875 8.59375 -16.867188 7.59375 -16.265625 C 6.601562 -15.660156 5.820312 -14.796875 5.25 -13.671875 C 4.675781 -12.554688 4.390625 -11.257812 4.390625 -9.78125 C 4.390625 -8.425781 4.644531 -7.195312 5.15625 -6.09375 C 5.664062 -5 6.40625 -4.128906 7.375 -3.484375 C 8.351562 -2.847656 9.519531 -2.53125 10.875 -2.53125 C 12.4375 -2.53125 13.945312 -2.972656 15.40625 -3.859375 L 16.28125 -1.328125 C 15.894531 -0.972656 15.179688 -0.628906 14.140625 -0.296875 C 13.097656 0.0234375 12.046875 0.1875 10.984375 0.1875 Z M 10.984375 0.1875 "/></g></g></g><g fill="#230d1d" fill-opacity="1"><g transform="translate(302.728121, 158.472275)"><g><path d="M 7.59375 0.265625 C 6.332031 0.265625 5.210938 -0.015625 4.234375 -0.578125 C 3.253906 -1.148438 2.5 -1.925781 1.96875 -2.90625 C 1.4375 -3.882812 1.171875 -4.96875 1.171875 -6.15625 C 1.171875 -7.332031 1.429688 -8.40625 1.953125 -9.375 C 2.484375 -10.351562 3.234375 -11.128906 4.203125 -11.703125 C 5.179688 -12.273438 6.3125 -12.5625 7.59375 -12.5625 C 8.875 -12.5625 10 -12.273438 10.96875 -11.703125 C 11.9375 -11.128906 12.679688 -10.351562 13.203125 -9.375 C 13.734375 -8.40625 14 -7.332031 14 -6.15625 C 14 -4.96875 13.726562 -3.882812 13.1875 -2.90625 C 12.65625 -1.925781 11.90625 -1.148438 10.9375 -0.578125 C 9.96875 -0.015625 8.851562 0.265625 7.59375 0.265625 Z M 7.671875 -2.078125 C 8.703125 -2.078125 9.515625 -2.457031 10.109375 -3.21875 C 10.710938 -3.988281 11.015625 -4.953125 11.015625 -6.109375 C 11.015625 -7.265625 10.691406 -8.234375 10.046875 -9.015625 C 9.410156 -9.804688 8.566406 -10.203125 7.515625 -10.203125 C 6.503906 -10.203125 5.691406 -9.8125 5.078125 -9.03125 C 4.460938 -8.25 4.15625 -7.273438 4.15625 -6.109375 C 4.15625 -4.960938 4.484375 -4.003906 5.140625 -3.234375 C 5.796875 -2.460938 6.640625 -2.078125 7.671875 -2.078125 Z M 7.671875 -2.078125 "/></g></g></g><g fill="#230d1d" fill-opacity="1"><g transform="translate(319.865548, 158.472275)"><g><path d="M 1.890625 -12.234375 L 4.71875 -12.234375 L 4.75 -10 C 5.082031 -10.738281 5.613281 -11.347656 6.34375 -11.828125 C 7.070312 -12.316406 7.925781 -12.5625 8.90625 -12.5625 C 10.164062 -12.5625 11.132812 -12.296875 11.8125 -11.765625 C 12.488281 -11.242188 12.941406 -10.507812 13.171875 -9.5625 C 13.398438 -8.625 13.515625 -7.398438 13.515625 -5.890625 L 13.515625 0 L 10.640625 0 L 10.640625 -5.8125 C 10.640625 -7.351562 10.488281 -8.46875 10.1875 -9.15625 C 9.882812 -9.84375 9.257812 -10.1875 8.3125 -10.1875 C 7.78125 -10.1875 7.238281 -10.019531 6.6875 -9.6875 C 6.132812 -9.363281 5.675781 -8.890625 5.3125 -8.265625 C 4.945312 -7.640625 4.765625 -6.910156 4.765625 -6.078125 L 4.765625 0 L 1.890625 0 Z M 1.890625 -12.234375 "/></g></g></g><g fill="#230d1d" fill-opacity="1"><g transform="translate(337.162889, 158.472275)"><g><path d="M 11.625 -1.84375 C 11.195312 -1.164062 10.597656 -0.644531 9.828125 -0.28125 C 9.066406 0.0820312 8.164062 0.265625 7.125 0.265625 C 6.019531 0.265625 5.015625 0 4.109375 -0.53125 C 3.203125 -1.0625 2.484375 -1.816406 1.953125 -2.796875 C 1.429688 -3.773438 1.171875 -4.90625 1.171875 -6.1875 C 1.171875 -7.570312 1.4375 -8.738281 1.96875 -9.6875 C 2.5 -10.632812 3.210938 -11.347656 4.109375 -11.828125 C 5.015625 -12.316406 6.019531 -12.5625 7.125 -12.5625 C 9.175781 -12.5625 10.675781 -11.707031 11.625 -10 L 11.65625 -12.234375 L 14.421875 -12.234375 L 14.421875 6.484375 L 11.59375 6.484375 Z M 7.78125 -2.125 C 8.789062 -2.125 9.640625 -2.472656 10.328125 -3.171875 C 11.023438 -3.878906 11.375 -4.800781 11.375 -5.9375 L 11.375 -6.125 C 11.375 -6.894531 11.210938 -7.582031 10.890625 -8.1875 C 10.578125 -8.789062 10.144531 -9.257812 9.59375 -9.59375 C 9.039062 -9.9375 8.4375 -10.109375 7.78125 -10.109375 C 6.644531 -10.109375 5.765625 -9.738281 5.140625 -9 C 4.523438 -8.257812 4.21875 -7.300781 4.21875 -6.125 C 4.21875 -4.9375 4.519531 -3.972656 5.125 -3.234375 C 5.738281 -2.492188 6.625 -2.125 7.78125 -2.125 Z M 7.78125 -2.125 "/></g></g></g><g fill="#230d1d" fill-opacity="1"><g transform="translate(355.472975, 158.472275)"><g><path d="M 6.125 0.265625 C 4.4375 0.265625 3.273438 -0.226562 2.640625 -1.21875 C 2.015625 -2.21875 1.703125 -3.609375 1.703125 -5.390625 L 1.703125 -12.234375 L 4.578125 -12.234375 L 4.578125 -6.109375 C 4.578125 -5.085938 4.632812 -4.296875 4.75 -3.734375 C 4.875 -3.179688 5.109375 -2.769531 5.453125 -2.5 C 5.796875 -2.238281 6.316406 -2.109375 7.015625 -2.109375 C 7.503906 -2.109375 7.976562 -2.25 8.4375 -2.53125 C 8.90625 -2.8125 9.285156 -3.195312 9.578125 -3.6875 C 9.867188 -4.175781 10.015625 -4.710938 10.015625 -5.296875 L 10.015625 -12.234375 L 12.875 -12.234375 L 12.875 0 L 10.53125 0 L 10.203125 -1.78125 C 9.765625 -1.09375 9.210938 -0.578125 8.546875 -0.234375 C 7.878906 0.0976562 7.070312 0.265625 6.125 0.265625 Z M 6.125 0.265625 "/></g></g></g><g fill="#230d1d" fill-opacity="1"><g transform="translate(372.26393, 158.472275)"><g><path d="M 7.671875 0.265625 C 6.210938 0.265625 4.992188 -0.0195312 4.015625 -0.59375 C 3.046875 -1.175781 2.328125 -1.953125 1.859375 -2.921875 C 1.398438 -3.890625 1.171875 -4.953125 1.171875 -6.109375 C 1.171875 -7.398438 1.441406 -8.535156 1.984375 -9.515625 C 2.523438 -10.492188 3.273438 -11.242188 4.234375 -11.765625 C 5.191406 -12.296875 6.273438 -12.5625 7.484375 -12.5625 C 9.367188 -12.5625 10.769531 -12.039062 11.6875 -11 C 12.601562 -9.957031 13.0625 -8.492188 13.0625 -6.609375 C 13.0625 -6.128906 13.035156 -5.632812 12.984375 -5.125 L 4.1875 -5.125 C 4.382812 -4.03125 4.769531 -3.242188 5.34375 -2.765625 C 5.914062 -2.285156 6.71875 -2.046875 7.75 -2.046875 C 8.601562 -2.046875 9.304688 -2.117188 9.859375 -2.265625 C 10.410156 -2.410156 10.914062 -2.609375 11.375 -2.859375 L 12.265625 -0.796875 C 11.816406 -0.515625 11.207031 -0.265625 10.4375 -0.046875 C 9.675781 0.160156 8.753906 0.265625 7.671875 0.265625 Z M 10.265625 -7.125 C 10.285156 -8.21875 10.046875 -8.988281 9.546875 -9.4375 C 9.046875 -9.894531 8.332031 -10.125 7.40625 -10.125 C 5.539062 -10.125 4.46875 -9.125 4.1875 -7.125 Z M 10.265625 -7.125 "/></g></g></g><g fill="#230d1d" fill-opacity="1"><g transform="translate(388.415255, 158.472275)"><g><path d="M 1.8125 -12.234375 L 4.6875 -12.234375 L 4.6875 -9.84375 C 4.976562 -10.65625 5.441406 -11.3125 6.078125 -11.8125 C 6.710938 -12.3125 7.441406 -12.5625 8.265625 -12.5625 C 8.828125 -12.5625 9.21875 -12.503906 9.4375 -12.390625 L 9.03125 -9.484375 C 8.875 -9.597656 8.53125 -9.65625 8 -9.65625 C 7.164062 -9.65625 6.40625 -9.382812 5.71875 -8.84375 C 5.03125 -8.3125 4.6875 -7.460938 4.6875 -6.296875 L 4.6875 0 L 1.8125 0 Z M 1.8125 -12.234375 "/></g></g></g></svg>