<svg xmlns="http://www.w3.org/2000/svg" xmlns:xlink="http://www.w3.org/1999/xlink" width="285" zoomAndPan="magnify" viewBox="0 0 213.75 32.999998" height="44" preserveAspectRatio="xMidYMid meet" version="1.0"><defs><g/><clipPath id="b8f5354ea9"><path d="M 0.496094 0.332031 L 213.253906 0.332031 L 213.253906 30.882812 L 0.496094 30.882812 Z M 0.496094 0.332031 " clip-rule="nonzero"/></clipPath><clipPath id="6eae364cef"><path d="M 9.488281 0.332031 L 204.265625 0.332031 C 206.648438 0.332031 208.9375 1.277344 210.621094 2.964844 C 212.308594 4.652344 213.253906 6.9375 213.253906 9.320312 L 213.253906 21.894531 C 213.253906 24.277344 212.308594 26.5625 210.621094 28.25 C 208.9375 29.9375 206.648438 30.882812 204.265625 30.882812 L 9.488281 30.882812 C 7.101562 30.882812 4.816406 29.9375 3.128906 28.25 C 1.445312 26.5625 0.496094 24.277344 0.496094 21.894531 L 0.496094 9.320312 C 0.496094 6.9375 1.445312 4.652344 3.128906 2.964844 C 4.816406 1.277344 7.101562 0.332031 9.488281 0.332031 Z M 9.488281 0.332031 " clip-rule="nonzero"/></clipPath><clipPath id="a815413cc2"><path d="M 154.480469 6.632812 L 179.953125 6.632812 L 179.953125 24.613281 L 154.480469 24.613281 Z M 154.480469 6.632812 " clip-rule="nonzero"/></clipPath></defs><g clip-path="url(#b8f5354ea9)"><g clip-path="url(#6eae364cef)"><path fill="#ffffff" d="M 0.496094 0.332031 L 213.253906 0.332031 L 213.253906 30.882812 L 0.496094 30.882812 Z M 0.496094 0.332031 " fill-opacity="1" fill-rule="nonzero"/></g></g><g clip-path="url(#a815413cc2)"><path fill="#000000" d="M 157.21875 6.632812 C 155.714844 6.632812 154.492188 7.839844 154.492188 9.332031 C 154.527344 13.417969 154.492188 17.75 154.492188 21.914062 C 154.492188 23.351562 155.621094 24.511719 157.046875 24.597656 L 177.328125 24.613281 C 178.78125 24.554688 179.941406 23.371094 179.941406 21.914062 L 179.941406 8.867188 C 179.722656 7.59375 178.605469 6.632812 177.257812 6.632812 C 170.582031 6.636719 163.898438 6.632812 157.21875 6.632812 Z M 157.175781 8.050781 L 177.34375 8.050781 L 167.585938 17.703125 C 167.40625 17.878906 167.125 17.878906 166.945312 17.703125 Z M 178.578125 8.742188 L 178.578125 21.816406 C 178.578125 22.597656 178.292969 23.035156 177.726562 23.195312 L 170.851562 16.382812 Z M 156.011719 8.796875 L 163.609375 16.3125 L 156.664062 23.179688 C 156.191406 23.019531 156.023438 22.640625 156.011719 22.125 Z M 164.574219 17.253906 L 166.949219 19.613281 C 167.125 19.789062 167.410156 19.789062 167.585938 19.613281 L 169.886719 17.335938 L 175.878906 23.265625 L 158.496094 23.265625 Z M 164.574219 17.253906 " fill-opacity="1" fill-rule="nonzero"/></g><g fill="#000000" fill-opacity="1"><g transform="translate(11.763574, 19.643397)"><g><path d="M 0.328125 -8.796875 C 0.328125 -9.222656 0.554688 -9.484375 1.015625 -9.578125 L 1.4375 -9.65625 C 1.476562 -9.664062 1.515625 -9.671875 1.546875 -9.671875 C 1.585938 -9.671875 1.628906 -9.671875 1.671875 -9.671875 C 2.066406 -9.671875 2.300781 -9.4375 2.375 -8.96875 C 2.40625 -8.75 2.441406 -8.46875 2.484375 -8.125 C 2.523438 -7.78125 2.578125 -7.398438 2.640625 -6.984375 C 2.703125 -6.578125 2.769531 -6.148438 2.84375 -5.703125 C 2.925781 -5.253906 3.019531 -4.8125 3.125 -4.375 C 3.238281 -3.945312 3.359375 -3.535156 3.484375 -3.140625 C 3.617188 -2.753906 3.769531 -2.410156 3.9375 -2.109375 C 4.101562 -1.816406 4.28125 -1.582031 4.46875 -1.40625 C 4.664062 -1.226562 4.882812 -1.140625 5.125 -1.140625 C 5.28125 -1.140625 5.441406 -1.1875 5.609375 -1.28125 C 5.785156 -1.382812 5.957031 -1.515625 6.125 -1.671875 C 6.289062 -1.835938 6.445312 -2.023438 6.59375 -2.234375 C 6.75 -2.441406 6.890625 -2.648438 7.015625 -2.859375 C 7.140625 -3.066406 7.253906 -3.269531 7.359375 -3.46875 C 7.460938 -3.664062 7.539062 -3.835938 7.59375 -3.984375 C 7.632812 -4.109375 7.65625 -4.222656 7.65625 -4.328125 C 7.65625 -4.378906 7.648438 -4.429688 7.640625 -4.484375 C 7.640625 -4.535156 7.632812 -4.59375 7.625 -4.65625 C 7.488281 -5.0625 7.390625 -5.46875 7.328125 -5.875 C 7.265625 -6.289062 7.234375 -6.734375 7.234375 -7.203125 C 7.234375 -7.484375 7.253906 -7.757812 7.296875 -8.03125 C 7.347656 -8.300781 7.425781 -8.550781 7.53125 -8.78125 C 7.59375 -8.894531 7.679688 -8.992188 7.796875 -9.078125 C 7.921875 -9.171875 8.050781 -9.242188 8.1875 -9.296875 C 8.332031 -9.347656 8.484375 -9.382812 8.640625 -9.40625 C 8.796875 -9.425781 8.941406 -9.4375 9.078125 -9.4375 C 9.222656 -9.4375 9.351562 -9.410156 9.46875 -9.359375 C 9.59375 -9.304688 9.703125 -9.210938 9.796875 -9.078125 C 9.972656 -8.828125 10.097656 -8.535156 10.171875 -8.203125 C 10.253906 -7.878906 10.296875 -7.554688 10.296875 -7.234375 C 10.296875 -6.867188 10.257812 -6.5 10.1875 -6.125 C 10.125 -5.757812 10.046875 -5.390625 9.953125 -5.015625 C 9.910156 -4.921875 9.890625 -4.820312 9.890625 -4.71875 C 9.890625 -4.65625 9.894531 -4.59375 9.90625 -4.53125 C 9.925781 -4.476562 9.953125 -4.414062 9.984375 -4.34375 C 10.097656 -4.03125 10.234375 -3.710938 10.390625 -3.390625 C 10.554688 -3.078125 10.742188 -2.789062 10.953125 -2.53125 C 11.171875 -2.269531 11.410156 -2.054688 11.671875 -1.890625 C 11.941406 -1.722656 12.242188 -1.640625 12.578125 -1.640625 C 12.867188 -1.640625 13.132812 -1.765625 13.375 -2.015625 C 13.613281 -2.273438 13.8125 -2.59375 13.96875 -2.96875 C 14.132812 -3.351562 14.257812 -3.769531 14.34375 -4.21875 C 14.4375 -4.675781 14.484375 -5.113281 14.484375 -5.53125 C 14.484375 -5.957031 14.460938 -6.382812 14.421875 -6.8125 C 14.390625 -7.238281 14.347656 -7.628906 14.296875 -7.984375 C 14.285156 -8.015625 14.28125 -8.046875 14.28125 -8.078125 C 14.28125 -8.117188 14.28125 -8.15625 14.28125 -8.1875 C 14.28125 -8.5625 14.484375 -8.816406 14.890625 -8.953125 L 15.328125 -9.109375 C 15.453125 -9.148438 15.570312 -9.171875 15.6875 -9.171875 C 16.03125 -9.171875 16.238281 -8.953125 16.3125 -8.515625 C 16.382812 -8.097656 16.441406 -7.6875 16.484375 -7.28125 C 16.523438 -6.875 16.546875 -6.460938 16.546875 -6.046875 C 16.546875 -5.171875 16.441406 -4.347656 16.234375 -3.578125 C 16.035156 -2.816406 15.753906 -2.148438 15.390625 -1.578125 C 15.023438 -1.003906 14.585938 -0.550781 14.078125 -0.21875 C 13.578125 0.101562 13.023438 0.265625 12.421875 0.265625 C 11.835938 0.265625 11.25 0.0859375 10.65625 -0.265625 C 10.0625 -0.617188 9.519531 -1.179688 9.03125 -1.953125 C 8.9375 -2.128906 8.832031 -2.21875 8.71875 -2.21875 C 8.601562 -2.21875 8.5 -2.128906 8.40625 -1.953125 C 8.175781 -1.546875 7.921875 -1.164062 7.640625 -0.8125 C 7.367188 -0.46875 7.078125 -0.171875 6.765625 0.078125 C 6.453125 0.328125 6.125 0.519531 5.78125 0.65625 C 5.445312 0.800781 5.109375 0.875 4.765625 0.875 C 4.210938 0.875 3.722656 0.722656 3.296875 0.421875 C 2.878906 0.117188 2.515625 -0.28125 2.203125 -0.78125 C 1.898438 -1.28125 1.644531 -1.851562 1.4375 -2.5 C 1.226562 -3.15625 1.050781 -3.835938 0.90625 -4.546875 C 0.757812 -5.253906 0.640625 -5.957031 0.546875 -6.65625 C 0.460938 -7.363281 0.390625 -8.03125 0.328125 -8.65625 Z M 0.328125 -8.796875 "/></g></g></g><g fill="#000000" fill-opacity="1"><g transform="translate(30.063841, 19.643397)"><g><path d="M 0.953125 -3.296875 C 0.953125 -3.410156 0.960938 -3.535156 0.984375 -3.671875 C 1.015625 -3.804688 1.03125 -3.957031 1.03125 -4.125 C 1.03125 -4.238281 0.984375 -4.320312 0.890625 -4.375 C 0.796875 -4.4375 0.6875 -4.503906 0.5625 -4.578125 C 0.445312 -4.648438 0.335938 -4.742188 0.234375 -4.859375 C 0.140625 -4.972656 0.09375 -5.132812 0.09375 -5.34375 C 0.09375 -5.5 0.132812 -5.648438 0.21875 -5.796875 C 0.300781 -5.953125 0.421875 -6.09375 0.578125 -6.21875 C 0.972656 -6.507812 1.378906 -6.769531 1.796875 -7 C 2.222656 -7.226562 2.644531 -7.421875 3.0625 -7.578125 C 3.476562 -7.742188 3.890625 -7.867188 4.296875 -7.953125 C 4.710938 -8.035156 5.109375 -8.078125 5.484375 -8.078125 C 6.117188 -8.078125 6.710938 -7.957031 7.265625 -7.71875 C 7.828125 -7.488281 8.316406 -7.171875 8.734375 -6.765625 C 9.148438 -6.359375 9.476562 -5.878906 9.71875 -5.328125 C 9.957031 -4.785156 10.078125 -4.207031 10.078125 -3.59375 C 10.078125 -2.976562 9.945312 -2.398438 9.6875 -1.859375 C 9.4375 -1.316406 9.097656 -0.835938 8.671875 -0.421875 C 8.242188 -0.015625 7.738281 0.304688 7.15625 0.546875 C 6.570312 0.785156 5.960938 0.90625 5.328125 0.90625 C 4.703125 0.90625 4.117188 0.800781 3.578125 0.59375 C 3.046875 0.382812 2.582031 0.09375 2.1875 -0.28125 C 1.800781 -0.65625 1.5 -1.097656 1.28125 -1.609375 C 1.0625 -2.117188 0.953125 -2.679688 0.953125 -3.296875 Z M 5.546875 -0.875 C 5.816406 -0.875 6.101562 -0.925781 6.40625 -1.03125 C 6.707031 -1.144531 6.976562 -1.3125 7.21875 -1.53125 C 7.46875 -1.75 7.671875 -2.007812 7.828125 -2.3125 C 7.992188 -2.625 8.078125 -2.976562 8.078125 -3.375 C 8.078125 -3.769531 8.003906 -4.140625 7.859375 -4.484375 C 7.710938 -4.828125 7.515625 -5.125 7.265625 -5.375 C 7.015625 -5.632812 6.710938 -5.835938 6.359375 -5.984375 C 6.015625 -6.128906 5.640625 -6.203125 5.234375 -6.203125 C 4.503906 -6.203125 3.941406 -6.007812 3.546875 -5.625 C 3.160156 -5.25 2.96875 -4.664062 2.96875 -3.875 C 2.96875 -3.445312 3.03125 -3.046875 3.15625 -2.671875 C 3.289062 -2.304688 3.472656 -1.988281 3.703125 -1.71875 C 3.929688 -1.457031 4.203125 -1.25 4.515625 -1.09375 C 4.828125 -0.945312 5.171875 -0.875 5.546875 -0.875 Z M 5.546875 -0.875 "/></g></g></g><g fill="#000000" fill-opacity="1"><g transform="translate(41.640958, 19.643397)"><g><path d="M 6.203125 -7.421875 C 5.953125 -7.421875 5.734375 -7.351562 5.546875 -7.21875 C 5.367188 -7.09375 5.210938 -6.914062 5.078125 -6.6875 C 4.941406 -6.457031 4.832031 -6.1875 4.75 -5.875 C 4.664062 -5.570312 4.597656 -5.238281 4.546875 -4.875 C 4.492188 -4.507812 4.457031 -4.128906 4.4375 -3.734375 C 4.414062 -3.335938 4.40625 -2.941406 4.40625 -2.546875 C 4.40625 -2.015625 4.425781 -1.488281 4.46875 -0.96875 C 4.507812 -0.457031 4.53125 0.015625 4.53125 0.453125 C 4.53125 0.734375 4.421875 0.953125 4.203125 1.109375 C 3.992188 1.273438 3.695312 1.359375 3.3125 1.359375 C 3.238281 1.359375 3.15625 1.347656 3.0625 1.328125 C 2.96875 1.316406 2.878906 1.289062 2.796875 1.25 C 2.710938 1.21875 2.640625 1.164062 2.578125 1.09375 C 2.515625 1.019531 2.484375 0.925781 2.484375 0.8125 C 2.421875 0.226562 2.332031 -0.363281 2.21875 -0.96875 C 2.101562 -1.582031 1.960938 -2.191406 1.796875 -2.796875 C 1.628906 -3.398438 1.425781 -4 1.1875 -4.59375 C 0.957031 -5.1875 0.691406 -5.769531 0.390625 -6.34375 C 0.335938 -6.4375 0.289062 -6.523438 0.25 -6.609375 C 0.21875 -6.703125 0.203125 -6.785156 0.203125 -6.859375 C 0.203125 -6.960938 0.242188 -7.070312 0.328125 -7.1875 C 0.421875 -7.300781 0.535156 -7.40625 0.671875 -7.5 C 0.804688 -7.601562 0.953125 -7.6875 1.109375 -7.75 C 1.273438 -7.8125 1.4375 -7.84375 1.59375 -7.84375 C 1.84375 -7.84375 2.0625 -7.664062 2.25 -7.3125 C 2.445312 -6.96875 2.625 -6.414062 2.78125 -5.65625 C 2.820312 -5.53125 2.847656 -5.441406 2.859375 -5.390625 C 2.878906 -5.335938 2.910156 -5.3125 2.953125 -5.3125 C 3.023438 -5.3125 3.066406 -5.421875 3.078125 -5.640625 C 3.160156 -6.265625 3.296875 -6.800781 3.484375 -7.25 C 3.679688 -7.707031 3.921875 -8.082031 4.203125 -8.375 C 4.492188 -8.675781 4.828125 -8.894531 5.203125 -9.03125 C 5.578125 -9.175781 5.988281 -9.25 6.4375 -9.25 C 6.695312 -9.25 6.957031 -9.222656 7.21875 -9.171875 C 7.488281 -9.128906 7.726562 -9.0625 7.9375 -8.96875 C 8.144531 -8.875 8.316406 -8.757812 8.453125 -8.625 C 8.585938 -8.5 8.65625 -8.351562 8.65625 -8.1875 C 8.65625 -8.0625 8.628906 -7.914062 8.578125 -7.75 C 8.523438 -7.59375 8.457031 -7.441406 8.375 -7.296875 C 8.300781 -7.148438 8.210938 -7.023438 8.109375 -6.921875 C 8.003906 -6.816406 7.898438 -6.765625 7.796875 -6.765625 C 7.679688 -6.765625 7.566406 -6.796875 7.453125 -6.859375 C 7.335938 -6.929688 7.210938 -7.003906 7.078125 -7.078125 C 6.953125 -7.160156 6.816406 -7.238281 6.671875 -7.3125 C 6.535156 -7.382812 6.378906 -7.421875 6.203125 -7.421875 Z M 6.203125 -7.421875 "/></g></g></g><g fill="#000000" fill-opacity="1"><g transform="translate(49.866417, 19.643397)"><g><path d="M 1.421875 -0.203125 C 1.421875 -0.773438 1.398438 -1.394531 1.359375 -2.0625 C 1.328125 -2.738281 1.285156 -3.421875 1.234375 -4.109375 C 1.191406 -4.804688 1.140625 -5.484375 1.078125 -6.140625 C 1.023438 -6.804688 0.972656 -7.410156 0.921875 -7.953125 C 0.878906 -8.503906 0.835938 -8.976562 0.796875 -9.375 C 0.765625 -9.78125 0.75 -10.0625 0.75 -10.21875 C 0.75 -10.476562 0.847656 -10.675781 1.046875 -10.8125 C 1.242188 -10.957031 1.535156 -11.03125 1.921875 -11.03125 C 2.078125 -11.03125 2.210938 -11.015625 2.328125 -10.984375 C 2.453125 -10.953125 2.550781 -10.894531 2.625 -10.8125 C 2.695312 -10.726562 2.753906 -10.625 2.796875 -10.5 C 2.835938 -10.375 2.867188 -10.210938 2.890625 -10.015625 C 2.910156 -9.753906 2.929688 -9.472656 2.953125 -9.171875 C 2.972656 -8.867188 2.992188 -8.523438 3.015625 -8.140625 C 3.046875 -7.753906 3.070312 -7.320312 3.09375 -6.84375 C 3.125 -6.363281 3.15625 -5.804688 3.1875 -5.171875 C 3.1875 -5.078125 3.203125 -5.007812 3.234375 -4.96875 C 3.273438 -4.9375 3.316406 -4.921875 3.359375 -4.921875 C 3.429688 -4.921875 3.492188 -4.976562 3.546875 -5.09375 C 4.109375 -6.238281 4.695312 -7.113281 5.3125 -7.71875 C 5.925781 -8.320312 6.523438 -8.625 7.109375 -8.625 C 7.453125 -8.625 7.722656 -8.519531 7.921875 -8.3125 C 8.117188 -8.113281 8.21875 -7.84375 8.21875 -7.5 C 8.21875 -7.125 8.132812 -6.78125 7.96875 -6.46875 C 7.8125 -6.15625 7.613281 -5.859375 7.375 -5.578125 C 7.132812 -5.304688 6.875 -5.046875 6.59375 -4.796875 C 6.3125 -4.554688 6.046875 -4.316406 5.796875 -4.078125 C 5.554688 -3.847656 5.351562 -3.625 5.1875 -3.40625 C 5.03125 -3.1875 4.953125 -2.960938 4.953125 -2.734375 C 4.953125 -2.535156 5.070312 -2.328125 5.3125 -2.109375 C 5.5625 -1.890625 5.910156 -1.675781 6.359375 -1.46875 C 6.816406 -1.257812 7.375 -1.054688 8.03125 -0.859375 C 8.695312 -0.671875 9.453125 -0.488281 10.296875 -0.3125 C 10.429688 -0.28125 10.523438 -0.226562 10.578125 -0.15625 C 10.628906 -0.0820312 10.65625 0.015625 10.65625 0.140625 C 10.65625 0.285156 10.625 0.4375 10.5625 0.59375 C 10.5 0.75 10.414062 0.890625 10.3125 1.015625 C 10.21875 1.140625 10.109375 1.242188 9.984375 1.328125 C 9.859375 1.410156 9.738281 1.453125 9.625 1.453125 C 9.40625 1.453125 9.140625 1.421875 8.828125 1.359375 C 8.515625 1.304688 8.175781 1.226562 7.8125 1.125 C 7.457031 1.019531 7.085938 0.898438 6.703125 0.765625 C 6.316406 0.628906 5.941406 0.484375 5.578125 0.328125 C 5.222656 0.171875 4.882812 0.0078125 4.5625 -0.15625 C 4.25 -0.320312 3.972656 -0.488281 3.734375 -0.65625 C 3.660156 -0.695312 3.601562 -0.726562 3.5625 -0.75 C 3.519531 -0.78125 3.484375 -0.796875 3.453125 -0.796875 C 3.410156 -0.796875 3.382812 -0.78125 3.375 -0.75 C 3.375 -0.71875 3.375 -0.65625 3.375 -0.5625 C 3.375 -0.332031 3.351562 -0.144531 3.3125 0 C 3.28125 0.144531 3.21875 0.257812 3.125 0.34375 C 3.039062 0.425781 2.921875 0.484375 2.765625 0.515625 C 2.617188 0.546875 2.4375 0.5625 2.21875 0.5625 C 1.914062 0.5625 1.707031 0.503906 1.59375 0.390625 C 1.476562 0.285156 1.421875 0.0859375 1.421875 -0.203125 Z M 1.421875 -0.203125 "/></g></g></g><g fill="#000000" fill-opacity="1"><g transform="translate(59.95611, 19.643397)"><g/></g></g><g fill="#000000" fill-opacity="1"><g transform="translate(65.801689, 19.643397)"><g><path d="M 0.328125 -8.796875 C 0.328125 -9.222656 0.554688 -9.484375 1.015625 -9.578125 L 1.4375 -9.65625 C 1.476562 -9.664062 1.515625 -9.671875 1.546875 -9.671875 C 1.585938 -9.671875 1.628906 -9.671875 1.671875 -9.671875 C 2.066406 -9.671875 2.300781 -9.4375 2.375 -8.96875 C 2.40625 -8.75 2.441406 -8.46875 2.484375 -8.125 C 2.523438 -7.78125 2.578125 -7.398438 2.640625 -6.984375 C 2.703125 -6.578125 2.769531 -6.148438 2.84375 -5.703125 C 2.925781 -5.253906 3.019531 -4.8125 3.125 -4.375 C 3.238281 -3.945312 3.359375 -3.535156 3.484375 -3.140625 C 3.617188 -2.753906 3.769531 -2.410156 3.9375 -2.109375 C 4.101562 -1.816406 4.28125 -1.582031 4.46875 -1.40625 C 4.664062 -1.226562 4.882812 -1.140625 5.125 -1.140625 C 5.28125 -1.140625 5.441406 -1.1875 5.609375 -1.28125 C 5.785156 -1.382812 5.957031 -1.515625 6.125 -1.671875 C 6.289062 -1.835938 6.445312 -2.023438 6.59375 -2.234375 C 6.75 -2.441406 6.890625 -2.648438 7.015625 -2.859375 C 7.140625 -3.066406 7.253906 -3.269531 7.359375 -3.46875 C 7.460938 -3.664062 7.539062 -3.835938 7.59375 -3.984375 C 7.632812 -4.109375 7.65625 -4.222656 7.65625 -4.328125 C 7.65625 -4.378906 7.648438 -4.429688 7.640625 -4.484375 C 7.640625 -4.535156 7.632812 -4.59375 7.625 -4.65625 C 7.488281 -5.0625 7.390625 -5.46875 7.328125 -5.875 C 7.265625 -6.289062 7.234375 -6.734375 7.234375 -7.203125 C 7.234375 -7.484375 7.253906 -7.757812 7.296875 -8.03125 C 7.347656 -8.300781 7.425781 -8.550781 7.53125 -8.78125 C 7.59375 -8.894531 7.679688 -8.992188 7.796875 -9.078125 C 7.921875 -9.171875 8.050781 -9.242188 8.1875 -9.296875 C 8.332031 -9.347656 8.484375 -9.382812 8.640625 -9.40625 C 8.796875 -9.425781 8.941406 -9.4375 9.078125 -9.4375 C 9.222656 -9.4375 9.351562 -9.410156 9.46875 -9.359375 C 9.59375 -9.304688 9.703125 -9.210938 9.796875 -9.078125 C 9.972656 -8.828125 10.097656 -8.535156 10.171875 -8.203125 C 10.253906 -7.878906 10.296875 -7.554688 10.296875 -7.234375 C 10.296875 -6.867188 10.257812 -6.5 10.1875 -6.125 C 10.125 -5.757812 10.046875 -5.390625 9.953125 -5.015625 C 9.910156 -4.921875 9.890625 -4.820312 9.890625 -4.71875 C 9.890625 -4.65625 9.894531 -4.59375 9.90625 -4.53125 C 9.925781 -4.476562 9.953125 -4.414062 9.984375 -4.34375 C 10.097656 -4.03125 10.234375 -3.710938 10.390625 -3.390625 C 10.554688 -3.078125 10.742188 -2.789062 10.953125 -2.53125 C 11.171875 -2.269531 11.410156 -2.054688 11.671875 -1.890625 C 11.941406 -1.722656 12.242188 -1.640625 12.578125 -1.640625 C 12.867188 -1.640625 13.132812 -1.765625 13.375 -2.015625 C 13.613281 -2.273438 13.8125 -2.59375 13.96875 -2.96875 C 14.132812 -3.351562 14.257812 -3.769531 14.34375 -4.21875 C 14.4375 -4.675781 14.484375 -5.113281 14.484375 -5.53125 C 14.484375 -5.957031 14.460938 -6.382812 14.421875 -6.8125 C 14.390625 -7.238281 14.347656 -7.628906 14.296875 -7.984375 C 14.285156 -8.015625 14.28125 -8.046875 14.28125 -8.078125 C 14.28125 -8.117188 14.28125 -8.15625 14.28125 -8.1875 C 14.28125 -8.5625 14.484375 -8.816406 14.890625 -8.953125 L 15.328125 -9.109375 C 15.453125 -9.148438 15.570312 -9.171875 15.6875 -9.171875 C 16.03125 -9.171875 16.238281 -8.953125 16.3125 -8.515625 C 16.382812 -8.097656 16.441406 -7.6875 16.484375 -7.28125 C 16.523438 -6.875 16.546875 -6.460938 16.546875 -6.046875 C 16.546875 -5.171875 16.441406 -4.347656 16.234375 -3.578125 C 16.035156 -2.816406 15.753906 -2.148438 15.390625 -1.578125 C 15.023438 -1.003906 14.585938 -0.550781 14.078125 -0.21875 C 13.578125 0.101562 13.023438 0.265625 12.421875 0.265625 C 11.835938 0.265625 11.25 0.0859375 10.65625 -0.265625 C 10.0625 -0.617188 9.519531 -1.179688 9.03125 -1.953125 C 8.9375 -2.128906 8.832031 -2.21875 8.71875 -2.21875 C 8.601562 -2.21875 8.5 -2.128906 8.40625 -1.953125 C 8.175781 -1.546875 7.921875 -1.164062 7.640625 -0.8125 C 7.367188 -0.46875 7.078125 -0.171875 6.765625 0.078125 C 6.453125 0.328125 6.125 0.519531 5.78125 0.65625 C 5.445312 0.800781 5.109375 0.875 4.765625 0.875 C 4.210938 0.875 3.722656 0.722656 3.296875 0.421875 C 2.878906 0.117188 2.515625 -0.28125 2.203125 -0.78125 C 1.898438 -1.28125 1.644531 -1.851562 1.4375 -2.5 C 1.226562 -3.15625 1.050781 -3.835938 0.90625 -4.546875 C 0.757812 -5.253906 0.640625 -5.957031 0.546875 -6.65625 C 0.460938 -7.363281 0.390625 -8.03125 0.328125 -8.65625 Z M 0.328125 -8.796875 "/></g></g></g><g fill="#000000" fill-opacity="1"><g transform="translate(84.101955, 19.643397)"><g><path d="M 2.3125 -10.109375 C 2.113281 -10.109375 1.929688 -10.132812 1.765625 -10.1875 C 1.597656 -10.25 1.453125 -10.332031 1.328125 -10.4375 C 1.210938 -10.539062 1.117188 -10.660156 1.046875 -10.796875 C 0.972656 -10.941406 0.9375 -11.09375 0.9375 -11.25 C 0.9375 -11.53125 1.046875 -11.753906 1.265625 -11.921875 C 1.484375 -12.097656 1.78125 -12.1875 2.15625 -12.1875 C 2.320312 -12.1875 2.484375 -12.15625 2.640625 -12.09375 C 2.804688 -12.03125 2.945312 -11.945312 3.0625 -11.84375 C 3.1875 -11.738281 3.285156 -11.613281 3.359375 -11.46875 C 3.429688 -11.320312 3.46875 -11.175781 3.46875 -11.03125 C 3.46875 -10.75 3.363281 -10.523438 3.15625 -10.359375 C 2.945312 -10.191406 2.664062 -10.109375 2.3125 -10.109375 Z M 0.953125 -7.09375 C 0.953125 -7.320312 1.050781 -7.507812 1.25 -7.65625 C 1.457031 -7.8125 1.722656 -7.890625 2.046875 -7.890625 C 2.648438 -7.890625 2.96875 -7.679688 3 -7.265625 C 3.03125 -6.984375 3.0625 -6.660156 3.09375 -6.296875 C 3.125 -5.941406 3.148438 -5.566406 3.171875 -5.171875 C 3.203125 -4.773438 3.226562 -4.363281 3.25 -3.9375 C 3.28125 -3.507812 3.304688 -3.085938 3.328125 -2.671875 C 3.347656 -2.253906 3.363281 -1.851562 3.375 -1.46875 C 3.382812 -1.09375 3.390625 -0.742188 3.390625 -0.421875 C 3.390625 -0.0976562 3.269531 0.144531 3.03125 0.3125 C 2.800781 0.476562 2.460938 0.5625 2.015625 0.5625 C 1.804688 0.5625 1.644531 0.515625 1.53125 0.421875 C 1.414062 0.328125 1.359375 0.1875 1.359375 0 C 1.359375 -0.914062 1.335938 -1.769531 1.296875 -2.5625 C 1.253906 -3.363281 1.207031 -4.070312 1.15625 -4.6875 C 1.101562 -5.3125 1.054688 -5.828125 1.015625 -6.234375 C 0.972656 -6.648438 0.953125 -6.9375 0.953125 -7.09375 Z M 0.953125 -7.09375 "/></g></g></g><g fill="#000000" fill-opacity="1"><g transform="translate(89.540967, 19.643397)"><g><path d="M 1.75 -11.453125 C 1.75 -11.804688 1.847656 -12.050781 2.046875 -12.1875 C 2.242188 -12.332031 2.570312 -12.40625 3.03125 -12.40625 C 3.1875 -12.40625 3.320312 -12.390625 3.4375 -12.359375 C 3.5625 -12.328125 3.664062 -12.269531 3.75 -12.1875 C 3.832031 -12.113281 3.894531 -12.007812 3.9375 -11.875 C 3.988281 -11.75 4.03125 -11.585938 4.0625 -11.390625 C 4.144531 -10.773438 4.234375 -10.140625 4.328125 -9.484375 C 4.421875 -8.835938 4.519531 -8.179688 4.625 -7.515625 C 4.664062 -7.222656 4.820312 -7.078125 5.09375 -7.078125 C 5.164062 -7.078125 5.285156 -7.082031 5.453125 -7.09375 C 5.628906 -7.113281 5.832031 -7.132812 6.0625 -7.15625 C 6.289062 -7.175781 6.535156 -7.195312 6.796875 -7.21875 C 7.066406 -7.25 7.335938 -7.273438 7.609375 -7.296875 C 7.878906 -7.328125 8.132812 -7.347656 8.375 -7.359375 C 8.613281 -7.378906 8.828125 -7.390625 9.015625 -7.390625 C 9.160156 -7.390625 9.273438 -7.359375 9.359375 -7.296875 C 9.441406 -7.242188 9.507812 -7.171875 9.5625 -7.078125 C 9.613281 -6.992188 9.644531 -6.894531 9.65625 -6.78125 C 9.675781 -6.675781 9.6875 -6.566406 9.6875 -6.453125 C 9.6875 -6.359375 9.664062 -6.253906 9.625 -6.140625 C 9.59375 -6.035156 9.546875 -5.941406 9.484375 -5.859375 C 9.421875 -5.785156 9.34375 -5.71875 9.25 -5.65625 C 9.15625 -5.601562 9.050781 -5.578125 8.9375 -5.578125 C 8.363281 -5.578125 7.78125 -5.554688 7.1875 -5.515625 C 6.601562 -5.484375 6.019531 -5.441406 5.4375 -5.390625 C 5.144531 -5.347656 5 -5.195312 5 -4.9375 C 5 -4.914062 5 -4.890625 5 -4.859375 C 5.007812 -4.828125 5.015625 -4.804688 5.015625 -4.796875 C 5.097656 -4.210938 5.171875 -3.671875 5.234375 -3.171875 C 5.304688 -2.671875 5.367188 -2.222656 5.421875 -1.828125 C 5.472656 -1.429688 5.507812 -1.101562 5.53125 -0.84375 C 5.5625 -0.582031 5.578125 -0.410156 5.578125 -0.328125 C 5.578125 -0.0859375 5.550781 0.109375 5.5 0.265625 C 5.457031 0.429688 5.382812 0.566406 5.28125 0.671875 C 5.175781 0.773438 5.035156 0.847656 4.859375 0.890625 C 4.691406 0.929688 4.472656 0.953125 4.203125 0.953125 C 3.953125 0.953125 3.765625 0.890625 3.640625 0.765625 C 3.523438 0.648438 3.460938 0.472656 3.453125 0.234375 C 3.410156 -0.546875 3.347656 -1.332031 3.265625 -2.125 C 3.179688 -2.914062 3.082031 -3.707031 2.96875 -4.5 C 2.90625 -4.78125 2.753906 -4.921875 2.515625 -4.921875 C 2.492188 -4.921875 2.46875 -4.914062 2.4375 -4.90625 C 2.414062 -4.90625 2.394531 -4.90625 2.375 -4.90625 C 1.96875 -4.8125 1.582031 -4.71875 1.21875 -4.625 C 0.851562 -4.53125 0.515625 -4.429688 0.203125 -4.328125 C 0.0234375 -4.265625 -0.128906 -4.222656 -0.265625 -4.203125 C -0.410156 -4.179688 -0.539062 -4.171875 -0.65625 -4.171875 C -0.800781 -4.171875 -0.910156 -4.238281 -0.984375 -4.375 C -1.054688 -4.507812 -1.09375 -4.675781 -1.09375 -4.875 C -1.09375 -4.945312 -1.085938 -5.03125 -1.078125 -5.125 C -1.066406 -5.226562 -1.039062 -5.328125 -1 -5.421875 C -0.96875 -5.515625 -0.914062 -5.601562 -0.84375 -5.6875 C -0.78125 -5.769531 -0.6875 -5.835938 -0.5625 -5.890625 C -0.289062 -6.003906 0.0703125 -6.117188 0.53125 -6.234375 C 1 -6.359375 1.523438 -6.472656 2.109375 -6.578125 C 2.242188 -6.617188 2.347656 -6.675781 2.421875 -6.75 C 2.503906 -6.820312 2.546875 -6.9375 2.546875 -7.09375 C 2.546875 -7.125 2.546875 -7.15625 2.546875 -7.1875 C 2.546875 -7.226562 2.535156 -7.269531 2.515625 -7.3125 C 2.410156 -7.914062 2.3125 -8.46875 2.21875 -8.96875 C 2.125 -9.46875 2.039062 -9.894531 1.96875 -10.25 C 1.894531 -10.613281 1.835938 -10.894531 1.796875 -11.09375 C 1.765625 -11.300781 1.75 -11.421875 1.75 -11.453125 Z M 1.75 -11.453125 "/></g></g></g><g fill="#000000" fill-opacity="1"><g transform="translate(98.86711, 19.643397)"><g><path d="M 0.546875 -9.546875 C 0.546875 -10.265625 1.007812 -10.625 1.9375 -10.625 C 2.09375 -10.625 2.226562 -10.578125 2.34375 -10.484375 C 2.46875 -10.398438 2.539062 -10.285156 2.5625 -10.140625 C 2.613281 -9.734375 2.660156 -9.332031 2.703125 -8.9375 C 2.753906 -8.539062 2.800781 -8.09375 2.84375 -7.59375 C 2.894531 -7.101562 2.941406 -6.535156 2.984375 -5.890625 C 3.023438 -5.242188 3.070312 -4.476562 3.125 -3.59375 C 3.125 -3.5 3.140625 -3.429688 3.171875 -3.390625 C 3.203125 -3.347656 3.234375 -3.328125 3.265625 -3.328125 C 3.328125 -3.328125 3.390625 -3.390625 3.453125 -3.515625 C 3.671875 -4.003906 3.921875 -4.445312 4.203125 -4.84375 C 4.484375 -5.238281 4.78125 -5.570312 5.09375 -5.84375 C 5.414062 -6.125 5.753906 -6.332031 6.109375 -6.46875 C 6.460938 -6.613281 6.820312 -6.6875 7.1875 -6.6875 C 7.675781 -6.6875 8.117188 -6.546875 8.515625 -6.265625 C 8.910156 -5.992188 9.25 -5.601562 9.53125 -5.09375 C 9.8125 -4.582031 10.023438 -3.960938 10.171875 -3.234375 C 10.328125 -2.515625 10.40625 -1.707031 10.40625 -0.8125 C 10.40625 -0.570312 10.382812 -0.375 10.34375 -0.21875 C 10.3125 -0.0625 10.25 0.0625 10.15625 0.15625 C 10.070312 0.25 9.953125 0.3125 9.796875 0.34375 C 9.648438 0.382812 9.46875 0.40625 9.25 0.40625 C 8.9375 0.40625 8.710938 0.34375 8.578125 0.21875 C 8.441406 0.101562 8.375 -0.078125 8.375 -0.328125 C 8.375 -0.953125 8.332031 -1.539062 8.25 -2.09375 C 8.164062 -2.644531 8.050781 -3.128906 7.90625 -3.546875 C 7.757812 -3.960938 7.585938 -4.289062 7.390625 -4.53125 C 7.191406 -4.78125 6.984375 -4.90625 6.765625 -4.90625 C 6.253906 -4.90625 5.742188 -4.488281 5.234375 -3.65625 C 4.734375 -2.832031 4.207031 -1.585938 3.65625 0.078125 C 3.601562 0.234375 3.539062 0.359375 3.46875 0.453125 C 3.40625 0.554688 3.328125 0.632812 3.234375 0.6875 C 3.148438 0.75 3.046875 0.789062 2.921875 0.8125 C 2.796875 0.84375 2.648438 0.859375 2.484375 0.859375 C 2.128906 0.859375 1.875 0.789062 1.71875 0.65625 C 1.570312 0.519531 1.492188 0.300781 1.484375 0 C 1.441406 -1.144531 1.367188 -2.242188 1.265625 -3.296875 C 1.171875 -4.347656 1.066406 -5.296875 0.953125 -6.140625 C 0.847656 -6.992188 0.753906 -7.710938 0.671875 -8.296875 C 0.585938 -8.890625 0.546875 -9.304688 0.546875 -9.546875 Z M 0.546875 -9.546875 "/></g></g></g><g fill="#000000" fill-opacity="1"><g transform="translate(110.811123, 19.643397)"><g/></g></g><g fill="#ffab08" fill-opacity="1"><g transform="translate(116.664316, 19.643397)"><g><path d="M 10.4375 -5.40625 C 10.363281 -5.40625 10.296875 -5.34375 10.234375 -5.21875 C 9.984375 -4.726562 9.71875 -4.285156 9.4375 -3.890625 C 9.15625 -3.492188 8.867188 -3.15625 8.578125 -2.875 C 8.296875 -2.59375 8.015625 -2.378906 7.734375 -2.234375 C 7.460938 -2.085938 7.207031 -2.015625 6.96875 -2.015625 C 6.726562 -2.015625 6.503906 -2.066406 6.296875 -2.171875 C 6.097656 -2.273438 5.878906 -2.46875 5.640625 -2.75 C 5.410156 -3.03125 5.144531 -3.421875 4.84375 -3.921875 C 4.539062 -4.429688 4.171875 -5.085938 3.734375 -5.890625 C 3.660156 -6.023438 3.585938 -6.125 3.515625 -6.1875 C 3.441406 -6.25 3.375 -6.28125 3.3125 -6.28125 C 3.226562 -6.28125 3.148438 -6.1875 3.078125 -6 C 3.003906 -5.820312 2.941406 -5.566406 2.890625 -5.234375 C 2.835938 -4.910156 2.796875 -4.519531 2.765625 -4.0625 C 2.734375 -3.601562 2.71875 -3.097656 2.71875 -2.546875 C 2.71875 -2.210938 2.734375 -1.878906 2.765625 -1.546875 C 2.804688 -1.210938 2.828125 -0.875 2.828125 -0.53125 C 2.828125 -0.40625 2.789062 -0.289062 2.71875 -0.1875 C 2.65625 -0.09375 2.566406 -0.0078125 2.453125 0.0625 C 2.347656 0.144531 2.222656 0.207031 2.078125 0.25 C 1.929688 0.300781 1.773438 0.328125 1.609375 0.328125 C 1.273438 0.328125 1.035156 0.128906 0.890625 -0.265625 C 0.742188 -0.660156 0.671875 -1.296875 0.671875 -2.171875 C 0.671875 -3.273438 0.734375 -4.273438 0.859375 -5.171875 C 0.984375 -6.078125 1.15625 -6.851562 1.375 -7.5 C 1.601562 -8.144531 1.875 -8.644531 2.1875 -9 C 2.507812 -9.351562 2.863281 -9.53125 3.25 -9.53125 C 3.59375 -9.53125 3.921875 -9.332031 4.234375 -8.9375 C 4.554688 -8.539062 4.894531 -7.90625 5.25 -7.03125 C 5.394531 -6.675781 5.550781 -6.34375 5.71875 -6.03125 C 5.894531 -5.71875 6.066406 -5.445312 6.234375 -5.21875 C 6.398438 -4.988281 6.5625 -4.8125 6.71875 -4.6875 C 6.882812 -4.5625 7.03125 -4.5 7.15625 -4.5 C 7.28125 -4.5 7.398438 -4.523438 7.515625 -4.578125 C 7.628906 -4.628906 7.757812 -4.75 7.90625 -4.9375 C 8.0625 -5.132812 8.238281 -5.410156 8.4375 -5.765625 C 8.632812 -6.128906 8.882812 -6.617188 9.1875 -7.234375 C 9.34375 -7.546875 9.484375 -7.804688 9.609375 -8.015625 C 9.734375 -8.234375 9.859375 -8.40625 9.984375 -8.53125 C 10.109375 -8.664062 10.238281 -8.757812 10.375 -8.8125 C 10.519531 -8.863281 10.675781 -8.890625 10.84375 -8.890625 C 11.050781 -8.890625 11.253906 -8.78125 11.453125 -8.5625 C 11.648438 -8.34375 11.84375 -8.050781 12.03125 -7.6875 C 12.21875 -7.332031 12.398438 -6.910156 12.578125 -6.421875 C 12.765625 -5.941406 12.941406 -5.4375 13.109375 -4.90625 C 13.273438 -4.375 13.4375 -3.835938 13.59375 -3.296875 C 13.757812 -2.753906 13.921875 -2.238281 14.078125 -1.75 C 14.117188 -1.601562 14.144531 -1.5 14.15625 -1.4375 C 14.175781 -1.382812 14.1875 -1.316406 14.1875 -1.234375 C 14.1875 -1.128906 14.148438 -1.019531 14.078125 -0.90625 C 14.003906 -0.800781 13.910156 -0.703125 13.796875 -0.609375 C 13.691406 -0.523438 13.566406 -0.457031 13.421875 -0.40625 C 13.285156 -0.351562 13.144531 -0.328125 13 -0.328125 C 12.8125 -0.328125 12.664062 -0.347656 12.5625 -0.390625 C 12.46875 -0.429688 12.390625 -0.507812 12.328125 -0.625 C 12.296875 -0.6875 12.238281 -0.84375 12.15625 -1.09375 C 12.082031 -1.351562 11.988281 -1.660156 11.875 -2.015625 C 11.769531 -2.367188 11.648438 -2.742188 11.515625 -3.140625 C 11.390625 -3.535156 11.257812 -3.898438 11.125 -4.234375 C 11 -4.566406 10.875 -4.84375 10.75 -5.0625 C 10.632812 -5.289062 10.53125 -5.40625 10.4375 -5.40625 Z M 10.4375 -5.40625 "/></g></g></g><g fill="#ffab08" fill-opacity="1"><g transform="translate(131.791415, 19.643397)"><g><path d="M 9.265625 -2.171875 C 9.453125 -2.335938 9.640625 -2.421875 9.828125 -2.421875 C 9.929688 -2.421875 10.023438 -2.394531 10.109375 -2.34375 C 10.203125 -2.289062 10.300781 -2.207031 10.40625 -2.09375 C 10.5 -1.9375 10.566406 -1.8125 10.609375 -1.71875 C 10.660156 -1.625 10.6875 -1.53125 10.6875 -1.4375 C 10.6875 -1.238281 10.585938 -1.050781 10.390625 -0.875 C 10.066406 -0.601562 9.71875 -0.363281 9.34375 -0.15625 C 8.976562 0.0507812 8.59375 0.222656 8.1875 0.359375 C 7.789062 0.503906 7.375 0.613281 6.9375 0.6875 C 6.507812 0.769531 6.082031 0.8125 5.65625 0.8125 C 5.125 0.8125 4.625 0.742188 4.15625 0.609375 C 3.6875 0.472656 3.265625 0.28125 2.890625 0.03125 C 2.523438 -0.21875 2.21875 -0.519531 1.96875 -0.875 C 1.71875 -1.226562 1.539062 -1.628906 1.4375 -2.078125 C 1.375 -2.253906 1.316406 -2.367188 1.265625 -2.421875 C 1.222656 -2.484375 1.144531 -2.515625 1.03125 -2.515625 C 0.789062 -2.515625 0.601562 -2.570312 0.46875 -2.6875 C 0.332031 -2.8125 0.265625 -2.988281 0.265625 -3.21875 C 0.265625 -3.3125 0.269531 -3.367188 0.28125 -3.390625 L 0.3125 -3.59375 C 0.34375 -3.832031 0.40625 -4.003906 0.5 -4.109375 C 0.59375 -4.210938 0.742188 -4.265625 0.953125 -4.265625 L 1.09375 -4.265625 C 1.375 -4.265625 1.570312 -4.394531 1.6875 -4.65625 C 1.894531 -5.113281 2.15625 -5.53125 2.46875 -5.90625 C 2.789062 -6.28125 3.148438 -6.597656 3.546875 -6.859375 C 3.941406 -7.128906 4.363281 -7.335938 4.8125 -7.484375 C 5.269531 -7.640625 5.734375 -7.71875 6.203125 -7.71875 C 6.691406 -7.71875 7.148438 -7.644531 7.578125 -7.5 C 8.003906 -7.363281 8.375 -7.164062 8.6875 -6.90625 C 9.007812 -6.65625 9.257812 -6.363281 9.4375 -6.03125 C 9.613281 -5.695312 9.703125 -5.332031 9.703125 -4.9375 C 9.703125 -4.664062 9.648438 -4.414062 9.546875 -4.1875 C 9.441406 -3.96875 9.289062 -3.773438 9.09375 -3.609375 C 8.894531 -3.441406 8.65625 -3.300781 8.375 -3.1875 C 8.09375 -3.082031 7.773438 -3.015625 7.421875 -2.984375 L 3.984375 -2.640625 C 3.847656 -2.640625 3.738281 -2.601562 3.65625 -2.53125 C 3.570312 -2.46875 3.53125 -2.378906 3.53125 -2.265625 C 3.53125 -2.097656 3.59375 -1.929688 3.71875 -1.765625 C 3.851562 -1.609375 4.023438 -1.46875 4.234375 -1.34375 C 4.453125 -1.226562 4.703125 -1.132812 4.984375 -1.0625 C 5.265625 -0.988281 5.554688 -0.953125 5.859375 -0.953125 C 6.140625 -0.953125 6.429688 -0.976562 6.734375 -1.03125 C 7.035156 -1.09375 7.332031 -1.175781 7.625 -1.28125 C 7.914062 -1.382812 8.195312 -1.507812 8.46875 -1.65625 C 8.75 -1.8125 9.015625 -1.984375 9.265625 -2.171875 Z M 7.046875 -4.734375 C 7.148438 -4.753906 7.238281 -4.800781 7.3125 -4.875 C 7.382812 -4.945312 7.421875 -5.039062 7.421875 -5.15625 C 7.421875 -5.257812 7.382812 -5.351562 7.3125 -5.4375 C 7.238281 -5.519531 7.140625 -5.59375 7.015625 -5.65625 C 6.890625 -5.726562 6.742188 -5.785156 6.578125 -5.828125 C 6.410156 -5.867188 6.234375 -5.890625 6.046875 -5.890625 C 5.773438 -5.890625 5.5 -5.847656 5.21875 -5.765625 C 4.9375 -5.691406 4.675781 -5.585938 4.4375 -5.453125 C 4.207031 -5.328125 4.019531 -5.1875 3.875 -5.03125 C 3.726562 -4.875 3.65625 -4.722656 3.65625 -4.578125 C 3.65625 -4.421875 3.75 -4.34375 3.9375 -4.34375 C 4.050781 -4.34375 4.234375 -4.351562 4.484375 -4.375 C 4.734375 -4.40625 5.007812 -4.4375 5.3125 -4.46875 C 5.613281 -4.507812 5.921875 -4.550781 6.234375 -4.59375 C 6.546875 -4.644531 6.816406 -4.691406 7.046875 -4.734375 Z M 7.046875 -4.734375 "/></g></g></g><g fill="#ffab08" fill-opacity="1"><g transform="translate(143.309035, 19.643397)"><g><path d="M 0.671875 -11.375 C 0.648438 -11.46875 0.628906 -11.550781 0.609375 -11.625 C 0.585938 -11.695312 0.578125 -11.769531 0.578125 -11.84375 C 0.578125 -12.03125 0.632812 -12.1875 0.75 -12.3125 C 0.875 -12.4375 1.050781 -12.5 1.28125 -12.5 C 2.300781 -12.5 2.863281 -12.253906 2.96875 -11.765625 C 3.082031 -11.140625 3.1875 -10.515625 3.28125 -9.890625 C 3.382812 -9.265625 3.472656 -8.628906 3.546875 -7.984375 C 3.628906 -7.335938 3.691406 -6.679688 3.734375 -6.015625 C 3.773438 -5.347656 3.796875 -4.671875 3.796875 -3.984375 C 3.796875 -3.847656 3.789062 -3.71875 3.78125 -3.59375 C 3.769531 -3.46875 3.742188 -3.359375 3.703125 -3.265625 C 3.660156 -3.171875 3.601562 -3.09375 3.53125 -3.03125 C 3.46875 -2.976562 3.375 -2.953125 3.25 -2.953125 L 2.421875 -3.0625 C 2.242188 -3.082031 2.117188 -3.132812 2.046875 -3.21875 C 1.984375 -3.300781 1.945312 -3.421875 1.9375 -3.578125 C 1.882812 -4.785156 1.75 -6.050781 1.53125 -7.375 C 1.320312 -8.695312 1.035156 -10.03125 0.671875 -11.375 Z M 2.71875 0.828125 C 2.53125 0.828125 2.347656 0.800781 2.171875 0.75 C 2.003906 0.695312 1.859375 0.617188 1.734375 0.515625 C 1.617188 0.410156 1.523438 0.285156 1.453125 0.140625 C 1.378906 0.00390625 1.34375 -0.144531 1.34375 -0.3125 C 1.34375 -0.582031 1.453125 -0.800781 1.671875 -0.96875 C 1.890625 -1.144531 2.1875 -1.234375 2.5625 -1.234375 C 2.726562 -1.234375 2.890625 -1.203125 3.046875 -1.140625 C 3.210938 -1.078125 3.351562 -0.992188 3.46875 -0.890625 C 3.59375 -0.785156 3.691406 -0.660156 3.765625 -0.515625 C 3.835938 -0.378906 3.875 -0.234375 3.875 -0.078125 C 3.875 0.203125 3.769531 0.421875 3.5625 0.578125 C 3.351562 0.742188 3.070312 0.828125 2.71875 0.828125 Z M 2.71875 0.828125 "/></g></g></g><path stroke-linecap="round" transform="matrix(0.749124, 0.000000000000003032, -0.000000000000003032, 0.749124, 187.386106, 15.523216)" fill="none" stroke-linejoin="miter" d="M 1.502573 1.502051 L 25.84351 1.502051 " stroke="#000000" stroke-width="3" stroke-opacity="1" stroke-miterlimit="4"/><path stroke-linecap="round" transform="matrix(0.749124, 0.000000000000003032, -0.000000000000003032, 0.749124, 187.386106, 15.523216)" fill="none" stroke-linejoin="round" d="M 20.592584 -2.997998 L 26.594387 1.502051 L 20.592584 6.0021 " stroke="#000000" stroke-width="3" stroke-opacity="1" stroke-miterlimit="4"/></svg>